<?xml version="1.0" encoding="utf-8" standalone="no"?>
<!DOCTYPE svg PUBLIC "-//W3C//DTD SVG 1.1//EN"
  "http://www.w3.org/Graphics/SVG/1.1/DTD/svg11.dtd">
<svg xmlns:xlink="http://www.w3.org/1999/xlink" width="382.79952pt" height="281.999512pt" viewBox="0 0 382.79952 281.999512" xmlns="http://www.w3.org/2000/svg" version="1.1">
 <metadata>
  <rdf:RDF xmlns:dc="http://purl.org/dc/elements/1.1/" xmlns:cc="http://creativecommons.org/ns#" xmlns:rdf="http://www.w3.org/1999/02/22-rdf-syntax-ns#">
   <cc:Work>
    <dc:type rdf:resource="http://purl.org/dc/dcmitype/StillImage"/>
    <dc:date>2026-09-11T17:13:49.722573</dc:date>
    <dc:format>image/svg+xml</dc:format>
    <dc:creator>
     <cc:Agent>
      <dc:title>Matplotlib v3.10.8, https://matplotlib.org/</dc:title>
     </cc:Agent>
    </dc:creator>
   </cc:Work>
  </rdf:RDF>
 </metadata>
 <defs>
  <style type="text/css">*{stroke-linejoin: round; stroke-linecap: butt}</style>
 </defs>
 <g id="figure_1">
  <g id="patch_1">
   <path d="M 0 281.999512
L 382.79952 281.999512
L 382.79952 0
L 0 0
z
" style="fill: #ffffff"/>
  </g>
  <g id="axes_1">
   <g id="patch_2">
    <path d="M 52.675625 243.451387
L 375.59952 243.451387
L 375.59952 10.416109
L 52.675625 10.416109
z
" style="fill: #ffffff"/>
   </g>
   <g id="matplotlib.axis_1">
    <g id="xtick_1">
     <g id="line2d_1">
      <path d="M 82.85383 243.451387
L 82.85383 10.416109
" clip-path="url(#p9434c4d02f)" style="fill: none; stroke: #e4e7eb; stroke-width: 0.65; stroke-linecap: square"/>
     </g>
     <g id="line2d_2">
      <defs>
       <path id="m4fa2336080" d="M 0 0
L 0 3.5
" style="stroke: #000000; stroke-width: 0.8"/>
      </defs>
      <g>
       <use xlink:href="#m4fa2336080" x="82.85383" y="243.451387" style="stroke: #000000; stroke-width: 0.8"/>
      </g>
     </g>
     <g id="text_1">
      <!-- 0.442 -->
      <g transform="translate(68.539767 258.049824) scale(0.1 -0.1)">
       <defs>
        <path id="DejaVuSans-30" d="M 2034 4250
Q 1547 4250 1301 3770
Q 1056 3291 1056 2328
Q 1056 1369 1301 889
Q 1547 409 2034 409
Q 2525 409 2770 889
Q 3016 1369 3016 2328
Q 3016 3291 2770 3770
Q 2525 4250 2034 4250
z
M 2034 4750
Q 2819 4750 3233 4129
Q 3647 3509 3647 2328
Q 3647 1150 3233 529
Q 2819 -91 2034 -91
Q 1250 -91 836 529
Q 422 1150 422 2328
Q 422 3509 836 4129
Q 1250 4750 2034 4750
z
" transform="scale(0.015625)"/>
        <path id="DejaVuSans-2e" d="M 684 794
L 1344 794
L 1344 0
L 684 0
L 684 794
z
" transform="scale(0.015625)"/>
        <path id="DejaVuSans-34" d="M 2419 4116
L 825 1625
L 2419 1625
L 2419 4116
z
M 2253 4666
L 3047 4666
L 3047 1625
L 3713 1625
L 3713 1100
L 3047 1100
L 3047 0
L 2419 0
L 2419 1100
L 313 1100
L 313 1709
L 2253 4666
z
" transform="scale(0.015625)"/>
        <path id="DejaVuSans-32" d="M 1228 531
L 3431 531
L 3431 0
L 469 0
L 469 531
Q 828 903 1448 1529
Q 2069 2156 2228 2338
Q 2531 2678 2651 2914
Q 2772 3150 2772 3378
Q 2772 3750 2511 3984
Q 2250 4219 1831 4219
Q 1534 4219 1204 4116
Q 875 4013 500 3803
L 500 4441
Q 881 4594 1212 4672
Q 1544 4750 1819 4750
Q 2544 4750 2975 4387
Q 3406 4025 3406 3419
Q 3406 3131 3298 2873
Q 3191 2616 2906 2266
Q 2828 2175 2409 1742
Q 1991 1309 1228 531
z
" transform="scale(0.015625)"/>
       </defs>
       <use xlink:href="#DejaVuSans-30"/>
       <use xlink:href="#DejaVuSans-2e" transform="translate(63.623047 0)"/>
       <use xlink:href="#DejaVuSans-34" transform="translate(95.410156 0)"/>
       <use xlink:href="#DejaVuSans-34" transform="translate(159.033203 0)"/>
       <use xlink:href="#DejaVuSans-32" transform="translate(222.65625 0)"/>
      </g>
     </g>
    </g>
    <g id="xtick_2">
     <g id="line2d_3">
      <path d="M 149.681422 243.451387
L 149.681422 10.416109
" clip-path="url(#p9434c4d02f)" style="fill: none; stroke: #e4e7eb; stroke-width: 0.65; stroke-linecap: square"/>
     </g>
     <g id="line2d_4">
      <g>
       <use xlink:href="#m4fa2336080" x="149.681422" y="243.451387" style="stroke: #000000; stroke-width: 0.8"/>
      </g>
     </g>
     <g id="text_2">
      <!-- 0.444 -->
      <g transform="translate(135.367359 258.049824) scale(0.1 -0.1)">
       <use xlink:href="#DejaVuSans-30"/>
       <use xlink:href="#DejaVuSans-2e" transform="translate(63.623047 0)"/>
       <use xlink:href="#DejaVuSans-34" transform="translate(95.410156 0)"/>
       <use xlink:href="#DejaVuSans-34" transform="translate(159.033203 0)"/>
       <use xlink:href="#DejaVuSans-34" transform="translate(222.65625 0)"/>
      </g>
     </g>
    </g>
    <g id="xtick_3">
     <g id="line2d_5">
      <path d="M 216.509014 243.451387
L 216.509014 10.416109
" clip-path="url(#p9434c4d02f)" style="fill: none; stroke: #e4e7eb; stroke-width: 0.65; stroke-linecap: square"/>
     </g>
     <g id="line2d_6">
      <g>
       <use xlink:href="#m4fa2336080" x="216.509014" y="243.451387" style="stroke: #000000; stroke-width: 0.8"/>
      </g>
     </g>
     <g id="text_3">
      <!-- 0.446 -->
      <g transform="translate(202.194951 258.049824) scale(0.1 -0.1)">
       <defs>
        <path id="DejaVuSans-36" d="M 2113 2584
Q 1688 2584 1439 2293
Q 1191 2003 1191 1497
Q 1191 994 1439 701
Q 1688 409 2113 409
Q 2538 409 2786 701
Q 3034 994 3034 1497
Q 3034 2003 2786 2293
Q 2538 2584 2113 2584
z
M 3366 4563
L 3366 3988
Q 3128 4100 2886 4159
Q 2644 4219 2406 4219
Q 1781 4219 1451 3797
Q 1122 3375 1075 2522
Q 1259 2794 1537 2939
Q 1816 3084 2150 3084
Q 2853 3084 3261 2657
Q 3669 2231 3669 1497
Q 3669 778 3244 343
Q 2819 -91 2113 -91
Q 1303 -91 875 529
Q 447 1150 447 2328
Q 447 3434 972 4092
Q 1497 4750 2381 4750
Q 2619 4750 2861 4703
Q 3103 4656 3366 4563
z
" transform="scale(0.015625)"/>
       </defs>
       <use xlink:href="#DejaVuSans-30"/>
       <use xlink:href="#DejaVuSans-2e" transform="translate(63.623047 0)"/>
       <use xlink:href="#DejaVuSans-34" transform="translate(95.410156 0)"/>
       <use xlink:href="#DejaVuSans-34" transform="translate(159.033203 0)"/>
       <use xlink:href="#DejaVuSans-36" transform="translate(222.65625 0)"/>
      </g>
     </g>
    </g>
    <g id="xtick_4">
     <g id="line2d_7">
      <path d="M 283.336606 243.451387
L 283.336606 10.416109
" clip-path="url(#p9434c4d02f)" style="fill: none; stroke: #e4e7eb; stroke-width: 0.65; stroke-linecap: square"/>
     </g>
     <g id="line2d_8">
      <g>
       <use xlink:href="#m4fa2336080" x="283.336606" y="243.451387" style="stroke: #000000; stroke-width: 0.8"/>
      </g>
     </g>
     <g id="text_4">
      <!-- 0.448 -->
      <g transform="translate(269.022543 258.049824) scale(0.1 -0.1)">
       <defs>
        <path id="DejaVuSans-38" d="M 2034 2216
Q 1584 2216 1326 1975
Q 1069 1734 1069 1313
Q 1069 891 1326 650
Q 1584 409 2034 409
Q 2484 409 2743 651
Q 3003 894 3003 1313
Q 3003 1734 2745 1975
Q 2488 2216 2034 2216
z
M 1403 2484
Q 997 2584 770 2862
Q 544 3141 544 3541
Q 544 4100 942 4425
Q 1341 4750 2034 4750
Q 2731 4750 3128 4425
Q 3525 4100 3525 3541
Q 3525 3141 3298 2862
Q 3072 2584 2669 2484
Q 3125 2378 3379 2068
Q 3634 1759 3634 1313
Q 3634 634 3220 271
Q 2806 -91 2034 -91
Q 1263 -91 848 271
Q 434 634 434 1313
Q 434 1759 690 2068
Q 947 2378 1403 2484
z
M 1172 3481
Q 1172 3119 1398 2916
Q 1625 2713 2034 2713
Q 2441 2713 2670 2916
Q 2900 3119 2900 3481
Q 2900 3844 2670 4047
Q 2441 4250 2034 4250
Q 1625 4250 1398 4047
Q 1172 3844 1172 3481
z
" transform="scale(0.015625)"/>
       </defs>
       <use xlink:href="#DejaVuSans-30"/>
       <use xlink:href="#DejaVuSans-2e" transform="translate(63.623047 0)"/>
       <use xlink:href="#DejaVuSans-34" transform="translate(95.410156 0)"/>
       <use xlink:href="#DejaVuSans-34" transform="translate(159.033203 0)"/>
       <use xlink:href="#DejaVuSans-38" transform="translate(222.65625 0)"/>
      </g>
     </g>
    </g>
    <g id="xtick_5">
     <g id="line2d_9">
      <path d="M 350.164198 243.451387
L 350.164198 10.416109
" clip-path="url(#p9434c4d02f)" style="fill: none; stroke: #e4e7eb; stroke-width: 0.65; stroke-linecap: square"/>
     </g>
     <g id="line2d_10">
      <g>
       <use xlink:href="#m4fa2336080" x="350.164198" y="243.451387" style="stroke: #000000; stroke-width: 0.8"/>
      </g>
     </g>
     <g id="text_5">
      <!-- 0.450 -->
      <g transform="translate(335.850135 258.049824) scale(0.1 -0.1)">
       <defs>
        <path id="DejaVuSans-35" d="M 691 4666
L 3169 4666
L 3169 4134
L 1269 4134
L 1269 2991
Q 1406 3038 1543 3061
Q 1681 3084 1819 3084
Q 2600 3084 3056 2656
Q 3513 2228 3513 1497
Q 3513 744 3044 326
Q 2575 -91 1722 -91
Q 1428 -91 1123 -41
Q 819 9 494 109
L 494 744
Q 775 591 1075 516
Q 1375 441 1709 441
Q 2250 441 2565 725
Q 2881 1009 2881 1497
Q 2881 1984 2565 2268
Q 2250 2553 1709 2553
Q 1456 2553 1204 2497
Q 953 2441 691 2322
L 691 4666
z
" transform="scale(0.015625)"/>
       </defs>
       <use xlink:href="#DejaVuSans-30"/>
       <use xlink:href="#DejaVuSans-2e" transform="translate(63.623047 0)"/>
       <use xlink:href="#DejaVuSans-34" transform="translate(95.410156 0)"/>
       <use xlink:href="#DejaVuSans-35" transform="translate(159.033203 0)"/>
       <use xlink:href="#DejaVuSans-30" transform="translate(222.65625 0)"/>
      </g>
     </g>
    </g>
    <g id="text_6">
     <!-- Bulk porosity, $\varepsilon_b$ -->
     <g transform="translate(169.037572 272.489512) scale(0.11 -0.11)">
      <defs>
       <path id="DejaVuSans-42" d="M 1259 2228
L 1259 519
L 2272 519
Q 2781 519 3026 730
Q 3272 941 3272 1375
Q 3272 1813 3026 2020
Q 2781 2228 2272 2228
L 1259 2228
z
M 1259 4147
L 1259 2741
L 2194 2741
Q 2656 2741 2882 2914
Q 3109 3088 3109 3444
Q 3109 3797 2882 3972
Q 2656 4147 2194 4147
L 1259 4147
z
M 628 4666
L 2241 4666
Q 2963 4666 3353 4366
Q 3744 4066 3744 3513
Q 3744 3084 3544 2831
Q 3344 2578 2956 2516
Q 3422 2416 3680 2098
Q 3938 1781 3938 1306
Q 3938 681 3513 340
Q 3088 0 2303 0
L 628 0
L 628 4666
z
" transform="scale(0.015625)"/>
       <path id="DejaVuSans-75" d="M 544 1381
L 544 3500
L 1119 3500
L 1119 1403
Q 1119 906 1312 657
Q 1506 409 1894 409
Q 2359 409 2629 706
Q 2900 1003 2900 1516
L 2900 3500
L 3475 3500
L 3475 0
L 2900 0
L 2900 538
Q 2691 219 2414 64
Q 2138 -91 1772 -91
Q 1169 -91 856 284
Q 544 659 544 1381
z
M 1991 3584
L 1991 3584
z
" transform="scale(0.015625)"/>
       <path id="DejaVuSans-6c" d="M 603 4863
L 1178 4863
L 1178 0
L 603 0
L 603 4863
z
" transform="scale(0.015625)"/>
       <path id="DejaVuSans-6b" d="M 581 4863
L 1159 4863
L 1159 1991
L 2875 3500
L 3609 3500
L 1753 1863
L 3688 0
L 2938 0
L 1159 1709
L 1159 0
L 581 0
L 581 4863
z
" transform="scale(0.015625)"/>
       <path id="DejaVuSans-20" transform="scale(0.015625)"/>
       <path id="DejaVuSans-70" d="M 1159 525
L 1159 -1331
L 581 -1331
L 581 3500
L 1159 3500
L 1159 2969
Q 1341 3281 1617 3432
Q 1894 3584 2278 3584
Q 2916 3584 3314 3078
Q 3713 2572 3713 1747
Q 3713 922 3314 415
Q 2916 -91 2278 -91
Q 1894 -91 1617 61
Q 1341 213 1159 525
z
M 3116 1747
Q 3116 2381 2855 2742
Q 2594 3103 2138 3103
Q 1681 3103 1420 2742
Q 1159 2381 1159 1747
Q 1159 1113 1420 752
Q 1681 391 2138 391
Q 2594 391 2855 752
Q 3116 1113 3116 1747
z
" transform="scale(0.015625)"/>
       <path id="DejaVuSans-6f" d="M 1959 3097
Q 1497 3097 1228 2736
Q 959 2375 959 1747
Q 959 1119 1226 758
Q 1494 397 1959 397
Q 2419 397 2687 759
Q 2956 1122 2956 1747
Q 2956 2369 2687 2733
Q 2419 3097 1959 3097
z
M 1959 3584
Q 2709 3584 3137 3096
Q 3566 2609 3566 1747
Q 3566 888 3137 398
Q 2709 -91 1959 -91
Q 1206 -91 779 398
Q 353 888 353 1747
Q 353 2609 779 3096
Q 1206 3584 1959 3584
z
" transform="scale(0.015625)"/>
       <path id="DejaVuSans-72" d="M 2631 2963
Q 2534 3019 2420 3045
Q 2306 3072 2169 3072
Q 1681 3072 1420 2755
Q 1159 2438 1159 1844
L 1159 0
L 581 0
L 581 3500
L 1159 3500
L 1159 2956
Q 1341 3275 1631 3429
Q 1922 3584 2338 3584
Q 2397 3584 2469 3576
Q 2541 3569 2628 3553
L 2631 2963
z
" transform="scale(0.015625)"/>
       <path id="DejaVuSans-73" d="M 2834 3397
L 2834 2853
Q 2591 2978 2328 3040
Q 2066 3103 1784 3103
Q 1356 3103 1142 2972
Q 928 2841 928 2578
Q 928 2378 1081 2264
Q 1234 2150 1697 2047
L 1894 2003
Q 2506 1872 2764 1633
Q 3022 1394 3022 966
Q 3022 478 2636 193
Q 2250 -91 1575 -91
Q 1294 -91 989 -36
Q 684 19 347 128
L 347 722
Q 666 556 975 473
Q 1284 391 1588 391
Q 1994 391 2212 530
Q 2431 669 2431 922
Q 2431 1156 2273 1281
Q 2116 1406 1581 1522
L 1381 1569
Q 847 1681 609 1914
Q 372 2147 372 2553
Q 372 3047 722 3315
Q 1072 3584 1716 3584
Q 2034 3584 2315 3537
Q 2597 3491 2834 3397
z
" transform="scale(0.015625)"/>
       <path id="DejaVuSans-69" d="M 603 3500
L 1178 3500
L 1178 0
L 603 0
L 603 3500
z
M 603 4863
L 1178 4863
L 1178 4134
L 603 4134
L 603 4863
z
" transform="scale(0.015625)"/>
       <path id="DejaVuSans-74" d="M 1172 4494
L 1172 3500
L 2356 3500
L 2356 3053
L 1172 3053
L 1172 1153
Q 1172 725 1289 603
Q 1406 481 1766 481
L 2356 481
L 2356 0
L 1766 0
Q 1100 0 847 248
Q 594 497 594 1153
L 594 3053
L 172 3053
L 172 3500
L 594 3500
L 594 4494
L 1172 4494
z
" transform="scale(0.015625)"/>
       <path id="DejaVuSans-79" d="M 2059 -325
Q 1816 -950 1584 -1140
Q 1353 -1331 966 -1331
L 506 -1331
L 506 -850
L 844 -850
Q 1081 -850 1212 -737
Q 1344 -625 1503 -206
L 1606 56
L 191 3500
L 800 3500
L 1894 763
L 2988 3500
L 3597 3500
L 2059 -325
z
" transform="scale(0.015625)"/>
       <path id="DejaVuSans-2c" d="M 750 794
L 1409 794
L 1409 256
L 897 -744
L 494 -744
L 750 256
L 750 794
z
" transform="scale(0.015625)"/>
       <path id="DejaVuSans-Oblique-3b5" d="M 1263 1888
Q 925 1963 778 2166
Q 669 2309 669 2503
Q 669 3034 1175 3344
Q 1575 3588 2188 3588
Q 2425 3588 2684 3550
Q 2944 3513 3234 3438
L 3134 2916
Q 2847 3006 2606 3047
Q 2359 3088 2138 3088
Q 1766 3088 1522 2944
Q 1228 2772 1228 2522
Q 1228 2356 1381 2241
Q 1563 2103 1925 2103
L 2409 2103
L 2319 1628
L 1856 1628
Q 1425 1628 1172 1469
Q 828 1253 828 916
Q 828 703 1013 563
Q 1244 388 1716 388
Q 2006 388 2284 444
Q 2563 503 2806 619
L 2700 84
Q 2403 -3 2131 -47
Q 1859 -91 1609 -91
Q 866 -91 516 194
Q 250 413 250 781
Q 250 1278 600 1584
Q 859 1813 1263 1888
z
" transform="scale(0.015625)"/>
       <path id="DejaVuSans-Oblique-62" d="M 3169 2138
Q 3169 2591 2961 2847
Q 2753 3103 2388 3103
Q 2122 3103 1889 2973
Q 1656 2844 1484 2597
Q 1303 2338 1198 1995
Q 1094 1653 1094 1313
Q 1094 881 1298 636
Q 1503 391 1863 391
Q 2134 391 2365 517
Q 2597 644 2772 891
Q 2950 1147 3059 1487
Q 3169 1828 3169 2138
z
M 1381 2969
Q 1594 3256 1914 3420
Q 2234 3584 2584 3584
Q 3122 3584 3439 3221
Q 3756 2859 3756 2241
Q 3756 1734 3570 1259
Q 3384 784 3041 416
Q 2816 172 2522 40
Q 2228 -91 1906 -91
Q 1566 -91 1316 65
Q 1066 222 909 531
L 806 0
L 231 0
L 1178 4863
L 1753 4863
L 1381 2969
z
" transform="scale(0.015625)"/>
      </defs>
      <use xlink:href="#DejaVuSans-42" transform="translate(0 0.015625)"/>
      <use xlink:href="#DejaVuSans-75" transform="translate(68.603516 0.015625)"/>
      <use xlink:href="#DejaVuSans-6c" transform="translate(131.982422 0.015625)"/>
      <use xlink:href="#DejaVuSans-6b" transform="translate(159.765625 0.015625)"/>
      <use xlink:href="#DejaVuSans-20" transform="translate(217.675781 0.015625)"/>
      <use xlink:href="#DejaVuSans-70" transform="translate(249.462891 0.015625)"/>
      <use xlink:href="#DejaVuSans-6f" transform="translate(312.939453 0.015625)"/>
      <use xlink:href="#DejaVuSans-72" transform="translate(374.121094 0.015625)"/>
      <use xlink:href="#DejaVuSans-6f" transform="translate(415.234375 0.015625)"/>
      <use xlink:href="#DejaVuSans-73" transform="translate(476.416016 0.015625)"/>
      <use xlink:href="#DejaVuSans-69" transform="translate(528.515625 0.015625)"/>
      <use xlink:href="#DejaVuSans-74" transform="translate(556.298828 0.015625)"/>
      <use xlink:href="#DejaVuSans-79" transform="translate(595.507812 0.015625)"/>
      <use xlink:href="#DejaVuSans-2c" transform="translate(654.6875 0.015625)"/>
      <use xlink:href="#DejaVuSans-20" transform="translate(686.474609 0.015625)"/>
      <use xlink:href="#DejaVuSans-Oblique-3b5" transform="translate(718.261719 0.015625)"/>
      <use xlink:href="#DejaVuSans-Oblique-62" transform="translate(772.314453 -16.390625) scale(0.7)"/>
     </g>
    </g>
   </g>
   <g id="matplotlib.axis_2">
    <g id="ytick_1">
     <g id="line2d_11">
      <path d="M 52.675625 204.853274
L 375.59952 204.853274
" clip-path="url(#p9434c4d02f)" style="fill: none; stroke: #e4e7eb; stroke-width: 0.65; stroke-linecap: square"/>
     </g>
     <g id="line2d_12">
      <defs>
       <path id="m63e38b4fba" d="M 0 0
L -3.5 0
" style="stroke: #000000; stroke-width: 0.8"/>
      </defs>
      <g>
       <use xlink:href="#m63e38b4fba" x="52.675625" y="204.853274" style="stroke: #000000; stroke-width: 0.8"/>
      </g>
     </g>
     <g id="text_7">
      <!-- 0.22 -->
      <g transform="translate(23.41 208.652493) scale(0.1 -0.1)">
       <use xlink:href="#DejaVuSans-30"/>
       <use xlink:href="#DejaVuSans-2e" transform="translate(63.623047 0)"/>
       <use xlink:href="#DejaVuSans-32" transform="translate(95.410156 0)"/>
       <use xlink:href="#DejaVuSans-32" transform="translate(159.033203 0)"/>
      </g>
     </g>
    </g>
    <g id="ytick_2">
     <g id="line2d_13">
      <path d="M 52.675625 166.082463
L 375.59952 166.082463
" clip-path="url(#p9434c4d02f)" style="fill: none; stroke: #e4e7eb; stroke-width: 0.65; stroke-linecap: square"/>
     </g>
     <g id="line2d_14">
      <g>
       <use xlink:href="#m63e38b4fba" x="52.675625" y="166.082463" style="stroke: #000000; stroke-width: 0.8"/>
      </g>
     </g>
     <g id="text_8">
      <!-- 0.24 -->
      <g transform="translate(23.41 169.881682) scale(0.1 -0.1)">
       <use xlink:href="#DejaVuSans-30"/>
       <use xlink:href="#DejaVuSans-2e" transform="translate(63.623047 0)"/>
       <use xlink:href="#DejaVuSans-32" transform="translate(95.410156 0)"/>
       <use xlink:href="#DejaVuSans-34" transform="translate(159.033203 0)"/>
      </g>
     </g>
    </g>
    <g id="ytick_3">
     <g id="line2d_15">
      <path d="M 52.675625 127.311652
L 375.59952 127.311652
" clip-path="url(#p9434c4d02f)" style="fill: none; stroke: #e4e7eb; stroke-width: 0.65; stroke-linecap: square"/>
     </g>
     <g id="line2d_16">
      <g>
       <use xlink:href="#m63e38b4fba" x="52.675625" y="127.311652" style="stroke: #000000; stroke-width: 0.8"/>
      </g>
     </g>
     <g id="text_9">
      <!-- 0.26 -->
      <g transform="translate(23.41 131.110871) scale(0.1 -0.1)">
       <use xlink:href="#DejaVuSans-30"/>
       <use xlink:href="#DejaVuSans-2e" transform="translate(63.623047 0)"/>
       <use xlink:href="#DejaVuSans-32" transform="translate(95.410156 0)"/>
       <use xlink:href="#DejaVuSans-36" transform="translate(159.033203 0)"/>
      </g>
     </g>
    </g>
    <g id="ytick_4">
     <g id="line2d_17">
      <path d="M 52.675625 88.540841
L 375.59952 88.540841
" clip-path="url(#p9434c4d02f)" style="fill: none; stroke: #e4e7eb; stroke-width: 0.65; stroke-linecap: square"/>
     </g>
     <g id="line2d_18">
      <g>
       <use xlink:href="#m63e38b4fba" x="52.675625" y="88.540841" style="stroke: #000000; stroke-width: 0.8"/>
      </g>
     </g>
     <g id="text_10">
      <!-- 0.28 -->
      <g transform="translate(23.41 92.34006) scale(0.1 -0.1)">
       <use xlink:href="#DejaVuSans-30"/>
       <use xlink:href="#DejaVuSans-2e" transform="translate(63.623047 0)"/>
       <use xlink:href="#DejaVuSans-32" transform="translate(95.410156 0)"/>
       <use xlink:href="#DejaVuSans-38" transform="translate(159.033203 0)"/>
      </g>
     </g>
    </g>
    <g id="ytick_5">
     <g id="line2d_19">
      <path d="M 52.675625 49.77003
L 375.59952 49.77003
" clip-path="url(#p9434c4d02f)" style="fill: none; stroke: #e4e7eb; stroke-width: 0.65; stroke-linecap: square"/>
     </g>
     <g id="line2d_20">
      <g>
       <use xlink:href="#m63e38b4fba" x="52.675625" y="49.77003" style="stroke: #000000; stroke-width: 0.8"/>
      </g>
     </g>
     <g id="text_11">
      <!-- 0.30 -->
      <g transform="translate(23.41 53.569249) scale(0.1 -0.1)">
       <defs>
        <path id="DejaVuSans-33" d="M 2597 2516
Q 3050 2419 3304 2112
Q 3559 1806 3559 1356
Q 3559 666 3084 287
Q 2609 -91 1734 -91
Q 1441 -91 1130 -33
Q 819 25 488 141
L 488 750
Q 750 597 1062 519
Q 1375 441 1716 441
Q 2309 441 2620 675
Q 2931 909 2931 1356
Q 2931 1769 2642 2001
Q 2353 2234 1838 2234
L 1294 2234
L 1294 2753
L 1863 2753
Q 2328 2753 2575 2939
Q 2822 3125 2822 3475
Q 2822 3834 2567 4026
Q 2313 4219 1838 4219
Q 1578 4219 1281 4162
Q 984 4106 628 3988
L 628 4550
Q 988 4650 1302 4700
Q 1616 4750 1894 4750
Q 2613 4750 3031 4423
Q 3450 4097 3450 3541
Q 3450 3153 3228 2886
Q 3006 2619 2597 2516
z
" transform="scale(0.015625)"/>
       </defs>
       <use xlink:href="#DejaVuSans-30"/>
       <use xlink:href="#DejaVuSans-2e" transform="translate(63.623047 0)"/>
       <use xlink:href="#DejaVuSans-33" transform="translate(95.410156 0)"/>
       <use xlink:href="#DejaVuSans-30" transform="translate(159.033203 0)"/>
      </g>
     </g>
    </g>
    <g id="ytick_6">
     <g id="line2d_21">
      <path d="M 52.675625 10.999219
L 375.59952 10.999219
" clip-path="url(#p9434c4d02f)" style="fill: none; stroke: #e4e7eb; stroke-width: 0.65; stroke-linecap: square"/>
     </g>
     <g id="line2d_22">
      <g>
       <use xlink:href="#m63e38b4fba" x="52.675625" y="10.999219" style="stroke: #000000; stroke-width: 0.8"/>
      </g>
     </g>
     <g id="text_12">
      <!-- 0.32 -->
      <g transform="translate(23.41 14.798438) scale(0.1 -0.1)">
       <use xlink:href="#DejaVuSans-30"/>
       <use xlink:href="#DejaVuSans-2e" transform="translate(63.623047 0)"/>
       <use xlink:href="#DejaVuSans-33" transform="translate(95.410156 0)"/>
       <use xlink:href="#DejaVuSans-32" transform="translate(159.033203 0)"/>
      </g>
     </g>
    </g>
    <g id="text_13">
     <!-- Uptake at 5000 s [mol kg$^{-1}$] -->
     <g transform="translate(17.1 204.813748) rotate(-90) scale(0.11 -0.11)">
      <defs>
       <path id="DejaVuSans-55" d="M 556 4666
L 1191 4666
L 1191 1831
Q 1191 1081 1462 751
Q 1734 422 2344 422
Q 2950 422 3222 751
Q 3494 1081 3494 1831
L 3494 4666
L 4128 4666
L 4128 1753
Q 4128 841 3676 375
Q 3225 -91 2344 -91
Q 1459 -91 1007 375
Q 556 841 556 1753
L 556 4666
z
" transform="scale(0.015625)"/>
       <path id="DejaVuSans-61" d="M 2194 1759
Q 1497 1759 1228 1600
Q 959 1441 959 1056
Q 959 750 1161 570
Q 1363 391 1709 391
Q 2188 391 2477 730
Q 2766 1069 2766 1631
L 2766 1759
L 2194 1759
z
M 3341 1997
L 3341 0
L 2766 0
L 2766 531
Q 2569 213 2275 61
Q 1981 -91 1556 -91
Q 1019 -91 701 211
Q 384 513 384 1019
Q 384 1609 779 1909
Q 1175 2209 1959 2209
L 2766 2209
L 2766 2266
Q 2766 2663 2505 2880
Q 2244 3097 1772 3097
Q 1472 3097 1187 3025
Q 903 2953 641 2809
L 641 3341
Q 956 3463 1253 3523
Q 1550 3584 1831 3584
Q 2591 3584 2966 3190
Q 3341 2797 3341 1997
z
" transform="scale(0.015625)"/>
       <path id="DejaVuSans-65" d="M 3597 1894
L 3597 1613
L 953 1613
Q 991 1019 1311 708
Q 1631 397 2203 397
Q 2534 397 2845 478
Q 3156 559 3463 722
L 3463 178
Q 3153 47 2828 -22
Q 2503 -91 2169 -91
Q 1331 -91 842 396
Q 353 884 353 1716
Q 353 2575 817 3079
Q 1281 3584 2069 3584
Q 2775 3584 3186 3129
Q 3597 2675 3597 1894
z
M 3022 2063
Q 3016 2534 2758 2815
Q 2500 3097 2075 3097
Q 1594 3097 1305 2825
Q 1016 2553 972 2059
L 3022 2063
z
" transform="scale(0.015625)"/>
       <path id="DejaVuSans-5b" d="M 550 4863
L 1875 4863
L 1875 4416
L 1125 4416
L 1125 -397
L 1875 -397
L 1875 -844
L 550 -844
L 550 4863
z
" transform="scale(0.015625)"/>
       <path id="DejaVuSans-6d" d="M 3328 2828
Q 3544 3216 3844 3400
Q 4144 3584 4550 3584
Q 5097 3584 5394 3201
Q 5691 2819 5691 2113
L 5691 0
L 5113 0
L 5113 2094
Q 5113 2597 4934 2840
Q 4756 3084 4391 3084
Q 3944 3084 3684 2787
Q 3425 2491 3425 1978
L 3425 0
L 2847 0
L 2847 2094
Q 2847 2600 2669 2842
Q 2491 3084 2119 3084
Q 1678 3084 1418 2786
Q 1159 2488 1159 1978
L 1159 0
L 581 0
L 581 3500
L 1159 3500
L 1159 2956
Q 1356 3278 1631 3431
Q 1906 3584 2284 3584
Q 2666 3584 2933 3390
Q 3200 3197 3328 2828
z
" transform="scale(0.015625)"/>
       <path id="DejaVuSans-67" d="M 2906 1791
Q 2906 2416 2648 2759
Q 2391 3103 1925 3103
Q 1463 3103 1205 2759
Q 947 2416 947 1791
Q 947 1169 1205 825
Q 1463 481 1925 481
Q 2391 481 2648 825
Q 2906 1169 2906 1791
z
M 3481 434
Q 3481 -459 3084 -895
Q 2688 -1331 1869 -1331
Q 1566 -1331 1297 -1286
Q 1028 -1241 775 -1147
L 775 -588
Q 1028 -725 1275 -790
Q 1522 -856 1778 -856
Q 2344 -856 2625 -561
Q 2906 -266 2906 331
L 2906 616
Q 2728 306 2450 153
Q 2172 0 1784 0
Q 1141 0 747 490
Q 353 981 353 1791
Q 353 2603 747 3093
Q 1141 3584 1784 3584
Q 2172 3584 2450 3431
Q 2728 3278 2906 2969
L 2906 3500
L 3481 3500
L 3481 434
z
" transform="scale(0.015625)"/>
       <path id="DejaVuSans-2212" d="M 678 2272
L 4684 2272
L 4684 1741
L 678 1741
L 678 2272
z
" transform="scale(0.015625)"/>
       <path id="DejaVuSans-31" d="M 794 531
L 1825 531
L 1825 4091
L 703 3866
L 703 4441
L 1819 4666
L 2450 4666
L 2450 531
L 3481 531
L 3481 0
L 794 0
L 794 531
z
" transform="scale(0.015625)"/>
       <path id="DejaVuSans-5d" d="M 1947 4863
L 1947 -844
L 622 -844
L 622 -397
L 1369 -397
L 1369 4416
L 622 4416
L 622 4863
L 1947 4863
z
" transform="scale(0.015625)"/>
      </defs>
      <use xlink:href="#DejaVuSans-55" transform="translate(0 0.684375)"/>
      <use xlink:href="#DejaVuSans-70" transform="translate(73.193359 0.684375)"/>
      <use xlink:href="#DejaVuSans-74" transform="translate(136.669922 0.684375)"/>
      <use xlink:href="#DejaVuSans-61" transform="translate(175.878906 0.684375)"/>
      <use xlink:href="#DejaVuSans-6b" transform="translate(237.158203 0.684375)"/>
      <use xlink:href="#DejaVuSans-65" transform="translate(295.068359 0.684375)"/>
      <use xlink:href="#DejaVuSans-20" transform="translate(356.591797 0.684375)"/>
      <use xlink:href="#DejaVuSans-61" transform="translate(388.378906 0.684375)"/>
      <use xlink:href="#DejaVuSans-74" transform="translate(449.658203 0.684375)"/>
      <use xlink:href="#DejaVuSans-20" transform="translate(488.867188 0.684375)"/>
      <use xlink:href="#DejaVuSans-35" transform="translate(520.654297 0.684375)"/>
      <use xlink:href="#DejaVuSans-30" transform="translate(584.277344 0.684375)"/>
      <use xlink:href="#DejaVuSans-30" transform="translate(647.900391 0.684375)"/>
      <use xlink:href="#DejaVuSans-30" transform="translate(711.523438 0.684375)"/>
      <use xlink:href="#DejaVuSans-20" transform="translate(775.146484 0.684375)"/>
      <use xlink:href="#DejaVuSans-73" transform="translate(806.933594 0.684375)"/>
      <use xlink:href="#DejaVuSans-20" transform="translate(859.033203 0.684375)"/>
      <use xlink:href="#DejaVuSans-5b" transform="translate(890.820312 0.684375)"/>
      <use xlink:href="#DejaVuSans-6d" transform="translate(929.833984 0.684375)"/>
      <use xlink:href="#DejaVuSans-6f" transform="translate(1027.246094 0.684375)"/>
      <use xlink:href="#DejaVuSans-6c" transform="translate(1088.427734 0.684375)"/>
      <use xlink:href="#DejaVuSans-20" transform="translate(1116.210938 0.684375)"/>
      <use xlink:href="#DejaVuSans-6b" transform="translate(1147.998047 0.684375)"/>
      <use xlink:href="#DejaVuSans-67" transform="translate(1205.908203 0.684375)"/>
      <use xlink:href="#DejaVuSans-2212" transform="translate(1270.341797 38.965625) scale(0.7)"/>
      <use xlink:href="#DejaVuSans-31" transform="translate(1328.994141 38.965625) scale(0.7)"/>
      <use xlink:href="#DejaVuSans-5d" transform="translate(1376.264648 0.684375)"/>
     </g>
    </g>
   </g>
   <g id="FillBetweenPolyCollection_1">
    <defs>
     <path id="m6389fc6dcb" d="M 67.353984 -234.460042
L 67.353984 -99.950293
L 68.829196 -100.374151
L 70.304408 -100.797556
L 71.77962 -101.245611
L 73.254832 -101.642465
L 74.730044 -102.061781
L 76.205256 -102.481517
L 77.680467 -102.822768
L 79.155679 -103.160155
L 80.630891 -103.500991
L 82.106103 -103.830326
L 83.581315 -104.163978
L 85.056527 -104.50418
L 86.531739 -104.901931
L 88.006951 -105.381038
L 89.482163 -105.681835
L 90.957375 -106.071227
L 92.432587 -106.460619
L 93.907799 -106.850823
L 95.383011 -107.24193
L 96.858223 -107.560248
L 98.333435 -107.873044
L 99.808647 -108.18584
L 101.283859 -108.498849
L 102.759071 -108.816046
L 104.234283 -109.130172
L 105.709494 -109.440358
L 107.184706 -109.754195
L 108.659918 -110.068031
L 110.13513 -110.452279
L 111.610342 -110.811856
L 113.085554 -111.214321
L 114.560766 -111.714561
L 116.035978 -112.166072
L 117.51119 -112.559496
L 118.986402 -112.931882
L 120.461614 -113.433451
L 121.936826 -113.875834
L 123.412038 -114.293339
L 124.88725 -114.586342
L 126.362462 -115.003507
L 127.837674 -115.311425
L 129.312886 -115.69442
L 130.788098 -116.135863
L 132.263309 -116.577724
L 133.738521 -117.019585
L 135.213733 -117.335768
L 136.688945 -117.61962
L 138.164157 -117.904267
L 139.639369 -118.335348
L 141.114581 -118.672184
L 142.589793 -119.059942
L 144.065005 -119.459739
L 145.540217 -119.842438
L 147.015429 -120.064439
L 148.490641 -120.492395
L 149.965853 -120.977794
L 151.441065 -121.226727
L 152.916277 -121.617622
L 154.391489 -122.013157
L 155.866701 -122.409942
L 157.341913 -122.852885
L 158.817125 -123.223196
L 160.292336 -123.59373
L 161.767548 -123.89041
L 163.24276 -124.237834
L 164.717972 -124.577288
L 166.193184 -125.046324
L 167.668396 -125.244435
L 169.143608 -125.652051
L 170.61882 -125.913112
L 172.094032 -126.148481
L 173.569244 -126.389407
L 175.044456 -126.726
L 176.519668 -127.083656
L 177.99488 -127.391986
L 179.470092 -127.577462
L 180.945304 -128.085173
L 182.420516 -128.228352
L 183.895728 -128.636654
L 185.37094 -128.985592
L 186.846151 -129.298634
L 188.321363 -129.792425
L 189.796575 -129.97482
L 191.271787 -130.152027
L 192.746999 -130.385248
L 194.222211 -130.86245
L 195.697423 -131.161009
L 197.172635 -131.266659
L 198.647847 -131.655591
L 200.123059 -132.029007
L 201.598271 -132.299971
L 203.073483 -132.302695
L 204.548695 -132.562613
L 206.023907 -133.008186
L 207.499119 -133.332043
L 208.974331 -133.798025
L 210.449543 -133.938872
L 211.924755 -134.346168
L 213.399967 -134.730231
L 214.875178 -134.743856
L 216.35039 -135.105964
L 217.825602 -135.279688
L 219.300814 -135.338786
L 220.776026 -135.483763
L 222.251238 -135.825384
L 223.72645 -135.912291
L 225.201662 -136.273712
L 226.676874 -136.537172
L 228.152086 -136.832662
L 229.627298 -137.042488
L 231.10251 -137.224048
L 232.577722 -137.370826
L 234.052934 -137.569455
L 235.528146 -137.567968
L 237.003358 -137.413787
L 238.47857 -137.640691
L 239.953782 -137.660928
L 241.428994 -137.83278
L 242.904205 -137.770642
L 244.379417 -137.822805
L 245.854629 -137.850069
L 247.329841 -137.747596
L 248.805053 -137.623227
L 250.280265 -137.479645
L 251.755477 -137.408071
L 253.230689 -137.257057
L 254.705901 -137.074259
L 256.181113 -136.998601
L 257.656325 -136.972485
L 259.131537 -136.627755
L 260.606749 -136.519767
L 262.081961 -136.466509
L 263.557173 -136.377643
L 265.032385 -136.052885
L 266.507597 -135.912656
L 267.982809 -135.676088
L 269.45802 -135.522314
L 270.933232 -135.380209
L 272.408444 -135.252563
L 273.883656 -135.047475
L 275.358868 -134.719842
L 276.83408 -134.471473
L 278.309292 -134.230944
L 279.784504 -133.981671
L 281.259716 -133.615156
L 282.734928 -133.386893
L 284.21014 -133.224793
L 285.685352 -132.881452
L 287.160564 -132.566474
L 288.635776 -132.239666
L 290.110988 -131.986136
L 291.5862 -131.582769
L 293.061412 -131.2011
L 294.536624 -130.657516
L 296.011836 -130.298455
L 297.487047 -129.928351
L 298.962259 -129.622777
L 300.437471 -129.374179
L 301.912683 -128.984406
L 303.387895 -128.670813
L 304.863107 -128.339381
L 306.338319 -127.970628
L 307.813531 -127.510669
L 309.288743 -127.056772
L 310.763955 -126.709327
L 312.239167 -126.250125
L 313.714379 -125.90752
L 315.189591 -125.477292
L 316.664803 -125.155131
L 318.140015 -124.730487
L 319.615227 -124.217339
L 321.090439 -123.598941
L 322.565651 -123.109091
L 324.040862 -122.667642
L 325.516074 -122.15627
L 326.991286 -121.641217
L 328.466498 -121.230309
L 329.94171 -120.822113
L 331.416922 -120.357558
L 332.892134 -119.805011
L 334.367346 -119.352537
L 335.842558 -118.969903
L 337.31777 -118.508794
L 338.792982 -118.045769
L 340.268194 -117.538697
L 341.743406 -117.084937
L 343.218618 -116.61032
L 344.69383 -116.10981
L 346.169042 -115.726708
L 347.644254 -115.289215
L 349.119466 -114.820156
L 350.594678 -114.3671
L 352.069889 -113.861659
L 353.545101 -113.357162
L 355.020313 -112.85551
L 356.495525 -112.356438
L 357.970737 -111.950822
L 359.445949 -111.556221
L 360.921161 -111.040741
L 360.921161 -195.358296
L 360.921161 -195.358296
L 359.445949 -194.987446
L 357.970737 -194.596525
L 356.495525 -194.283447
L 355.020313 -193.944045
L 353.545101 -193.608971
L 352.069889 -193.288414
L 350.594678 -193.04014
L 349.119466 -192.75516
L 347.644254 -192.461892
L 346.169042 -192.132024
L 344.69383 -191.913441
L 343.218618 -191.694661
L 341.743406 -191.42016
L 340.268194 -191.18677
L 338.792982 -190.89871
L 337.31777 -190.585158
L 335.842558 -190.407889
L 334.367346 -190.125209
L 332.892134 -189.981563
L 331.416922 -189.746459
L 329.94171 -189.461111
L 328.466498 -189.19361
L 326.991286 -188.951905
L 325.516074 -188.748709
L 324.040862 -188.626811
L 322.565651 -188.360957
L 321.090439 -188.164257
L 319.615227 -188.078983
L 318.140015 -188.003537
L 316.664803 -187.850702
L 315.189591 -187.702895
L 313.714379 -187.534685
L 312.239167 -187.380142
L 310.763955 -187.298943
L 309.288743 -187.113833
L 307.813531 -186.997421
L 306.338319 -186.849307
L 304.863107 -186.663043
L 303.387895 -186.534394
L 301.912683 -186.439781
L 300.437471 -186.294363
L 298.962259 -186.092925
L 297.487047 -186.052366
L 296.011836 -185.944678
L 294.536624 -185.877614
L 293.061412 -185.744409
L 291.5862 -185.482971
L 290.110988 -185.485288
L 288.635776 -185.406833
L 287.160564 -185.357225
L 285.685352 -185.35233
L 284.21014 -185.318016
L 282.734928 -185.270649
L 281.259716 -185.285822
L 279.784504 -185.251158
L 278.309292 -185.146293
L 276.83408 -185.126472
L 275.358868 -185.142028
L 273.883656 -185.179733
L 272.408444 -185.150945
L 270.933232 -185.162152
L 269.45802 -185.16578
L 267.982809 -185.214791
L 266.507597 -185.381826
L 265.032385 -185.332989
L 263.557173 -185.36354
L 262.081961 -185.383177
L 260.606749 -185.709655
L 259.131537 -185.735847
L 257.656325 -185.861636
L 256.181113 -185.80432
L 254.705901 -185.833857
L 253.230689 -185.940853
L 251.755477 -186.143381
L 250.280265 -186.300621
L 248.805053 -186.572005
L 247.329841 -186.609376
L 245.854629 -186.764351
L 244.379417 -186.904196
L 242.904205 -187.121804
L 241.428994 -187.229894
L 239.953782 -187.326635
L 238.47857 -187.540176
L 237.003358 -187.681336
L 235.528146 -187.687543
L 234.052934 -187.816046
L 232.577722 -187.933483
L 231.10251 -187.954982
L 229.627298 -188.106384
L 228.152086 -188.331886
L 226.676874 -188.470019
L 225.201662 -188.62536
L 223.72645 -188.969661
L 222.251238 -189.183961
L 220.776026 -189.401512
L 219.300814 -189.593683
L 217.825602 -189.846236
L 216.35039 -190.079184
L 214.875178 -190.36668
L 213.399967 -190.600338
L 211.924755 -190.853508
L 210.449543 -191.143044
L 208.974331 -191.470674
L 207.499119 -191.869935
L 206.023907 -192.1954
L 204.548695 -192.509276
L 203.073483 -192.905483
L 201.598271 -193.281702
L 200.123059 -193.542786
L 198.647847 -193.847047
L 197.172635 -194.088768
L 195.697423 -194.433237
L 194.222211 -194.829863
L 192.746999 -195.16615
L 191.271787 -195.47045
L 189.796575 -196.074533
L 188.321363 -196.4821
L 186.846151 -196.985548
L 185.37094 -197.236374
L 183.895728 -197.63559
L 182.420516 -198.065236
L 180.945304 -198.511303
L 179.470092 -198.941676
L 177.99488 -199.199099
L 176.519668 -199.629642
L 175.044456 -200.029443
L 173.569244 -200.400884
L 172.094032 -200.839153
L 170.61882 -201.246791
L 169.143608 -201.69667
L 167.668396 -202.27754
L 166.193184 -202.688175
L 164.717972 -203.114927
L 163.24276 -203.575661
L 161.767548 -203.919686
L 160.292336 -204.381909
L 158.817125 -204.752096
L 157.341913 -205.168672
L 155.866701 -205.549394
L 154.391489 -205.979194
L 152.916277 -206.408641
L 151.441065 -206.968651
L 149.965853 -207.348073
L 148.490641 -207.761068
L 147.015429 -208.260199
L 145.540217 -208.727404
L 144.065005 -209.054362
L 142.589793 -209.463012
L 141.114581 -209.862307
L 139.639369 -210.440749
L 138.164157 -210.858278
L 136.688945 -211.444865
L 135.213733 -211.920954
L 133.738521 -212.372674
L 132.263309 -212.934259
L 130.788098 -213.523239
L 129.312886 -213.900483
L 127.837674 -214.283727
L 126.362462 -214.830311
L 124.88725 -215.222568
L 123.412038 -215.770769
L 121.936826 -216.208849
L 120.461614 -216.750248
L 118.986402 -217.188854
L 117.51119 -217.582719
L 116.035978 -218.175342
L 114.560766 -218.634661
L 113.085554 -219.162101
L 111.610342 -219.703743
L 110.13513 -220.159417
L 108.659918 -220.637262
L 107.184706 -221.136865
L 105.709494 -221.631293
L 104.234283 -222.123492
L 102.759071 -222.615691
L 101.283859 -223.09101
L 99.808647 -223.602871
L 98.333435 -224.05094
L 96.858223 -224.505476
L 95.383011 -224.946865
L 93.907799 -225.392605
L 92.432587 -225.8842
L 90.957375 -226.374438
L 89.482163 -226.864066
L 88.006951 -227.352572
L 86.531739 -227.83986
L 85.056527 -228.326883
L 83.581315 -228.813906
L 82.106103 -229.29648
L 80.630891 -229.790104
L 79.155679 -230.279505
L 77.680467 -230.831072
L 76.205256 -231.406374
L 74.730044 -231.934652
L 73.254832 -232.462931
L 71.77962 -232.993894
L 70.304408 -233.523771
L 68.829196 -234.030236
L 67.353984 -234.460042
z
"/>
    </defs>
    <g clip-path="url(#p9434c4d02f)">
     <use xlink:href="#m6389fc6dcb" x="0" y="281.999512" style="fill: #777777; fill-opacity: 0.15"/>
    </g>
   </g>
   <g id="line2d_23">
    <path d="M 67.353984 117.744531
L 360.921161 118.952641
L 360.921161 118.952641
" clip-path="url(#p9434c4d02f)" style="fill: none; stroke: #777777; stroke-width: 1.7; stroke-linecap: square"/>
   </g>
   <g id="patch_3">
    <path d="M 52.675625 243.451387
L 52.675625 10.416109
" style="fill: none; stroke: #000000; stroke-width: 0.8; stroke-linejoin: miter; stroke-linecap: square"/>
   </g>
   <g id="patch_4">
    <path d="M 52.675625 243.451387
L 375.59952 243.451387
" style="fill: none; stroke: #000000; stroke-width: 0.8; stroke-linejoin: miter; stroke-linecap: square"/>
   </g>
   <g id="PathCollection_1">
    <defs>
     <path id="m143ae681cc" d="M 0 2.828427
C 0.750108 2.828427 1.469594 2.530406 2 2
C 2.530406 1.469594 2.828427 0.750108 2.828427 0
C 2.828427 -0.750108 2.530406 -1.469594 2 -2
C 1.469594 -2.530406 0.750108 -2.828427 0 -2.828427
C -0.750108 -2.828427 -1.469594 -2.530406 -2 -2
C -2.530406 -1.469594 -2.828427 -0.750108 -2.828427 0
C -2.828427 0.750108 -2.530406 1.469594 -2 2
C -1.469594 2.530406 -0.750108 2.828427 0 2.828427
z
" style="stroke: #ffffff; stroke-width: 0.5"/>
    </defs>
    <g clip-path="url(#p9434c4d02f)">
     <use xlink:href="#m143ae681cc" x="292.776732" y="232.858874" style="fill: #777777; stroke: #ffffff; stroke-width: 0.5"/>
     <use xlink:href="#m143ae681cc" x="360.921161" y="85.122525" style="fill: #777777; stroke: #ffffff; stroke-width: 0.5"/>
     <use xlink:href="#m143ae681cc" x="290.772021" y="110.745228" style="fill: #777777; stroke: #ffffff; stroke-width: 0.5"/>
     <use xlink:href="#m143ae681cc" x="132.791285" y="192.608814" style="fill: #777777; stroke: #ffffff; stroke-width: 0.5"/>
     <use xlink:href="#m143ae681cc" x="67.353984" y="142.604007" style="fill: #777777; stroke: #ffffff; stroke-width: 0.5"/>
     <use xlink:href="#m143ae681cc" x="238.849086" y="102.95296" style="fill: #777777; stroke: #ffffff; stroke-width: 0.5"/>
     <use xlink:href="#m143ae681cc" x="301.404955" y="150.899974" style="fill: #777777; stroke: #ffffff; stroke-width: 0.5"/>
     <use xlink:href="#m143ae681cc" x="241.743764" y="151.88023" style="fill: #777777; stroke: #ffffff; stroke-width: 0.5"/>
     <use xlink:href="#m143ae681cc" x="348.086645" y="80.17031" style="fill: #777777; stroke: #ffffff; stroke-width: 0.5"/>
     <use xlink:href="#m143ae681cc" x="174.776103" y="21.008621" style="fill: #777777; stroke: #ffffff; stroke-width: 0.5"/>
     <use xlink:href="#m143ae681cc" x="304.300194" y="66.625582" style="fill: #777777; stroke: #ffffff; stroke-width: 0.5"/>
     <use xlink:href="#m143ae681cc" x="138.199311" y="117.697137" style="fill: #777777; stroke: #ffffff; stroke-width: 0.5"/>
     <use xlink:href="#m143ae681cc" x="253.090318" y="118.908265" style="fill: #777777; stroke: #ffffff; stroke-width: 0.5"/>
     <use xlink:href="#m143ae681cc" x="282.917208" y="96.849751" style="fill: #777777; stroke: #ffffff; stroke-width: 0.5"/>
     <use xlink:href="#m143ae681cc" x="235.115538" y="214.692232" style="fill: #777777; stroke: #ffffff; stroke-width: 0.5"/>
     <use xlink:href="#m143ae681cc" x="148.70579" y="73.349537" style="fill: #777777; stroke: #ffffff; stroke-width: 0.5"/>
     <use xlink:href="#m143ae681cc" x="244.066823" y="156.629134" style="fill: #777777; stroke: #ffffff; stroke-width: 0.5"/>
     <use xlink:href="#m143ae681cc" x="248.566769" y="149.446363" style="fill: #777777; stroke: #ffffff; stroke-width: 0.5"/>
     <use xlink:href="#m143ae681cc" x="329.667252" y="79.282647" style="fill: #777777; stroke: #ffffff; stroke-width: 0.5"/>
     <use xlink:href="#m143ae681cc" x="129.625041" y="24.618884" style="fill: #777777; stroke: #ffffff; stroke-width: 0.5"/>
    </g>
   </g>
   <g id="text_14">
    <g id="patch_5">
     <path d="M 65.592581 47.803748
L 137.092581 47.803748
Q 139.842581 47.803748 139.842581 45.053748
L 139.842581 22.067873
Q 139.842581 19.317873 137.092581 19.317873
L 65.592581 19.317873
Q 62.842581 19.317873 62.842581 22.067873
L 62.842581 45.053748
Q 62.842581 47.803748 65.592581 47.803748
z
" style="fill: #ffffff; opacity: 0.85"/>
    </g>
    <!-- $\rho_s=0.102$ -->
    <g transform="translate(65.592581 30.40381) scale(0.11 -0.11)">
     <defs>
      <path id="DejaVuSans-Oblique-3c1" d="M 1203 2875
Q 1453 3194 1981 3475
Q 2188 3584 2756 3584
Q 3394 3584 3694 3078
Q 3994 2572 3834 1747
Q 3672 922 3175 415
Q 2678 -91 2041 -91
Q 1656 -91 1409 63
Q 1163 213 1044 525
L 681 -1331
L 103 -1331
L 697 1716
Q 838 2438 1203 2875
z
M 3238 1747
Q 3359 2381 3169 2744
Q 2978 3103 2522 3103
Q 2066 3103 1734 2744
Q 1403 2381 1281 1747
Q 1156 1113 1347 750
Q 1538 391 1994 391
Q 2450 391 2781 750
Q 3113 1113 3238 1747
z
" transform="scale(0.015625)"/>
      <path id="DejaVuSans-Oblique-73" d="M 3200 3397
L 3091 2853
Q 2863 2978 2609 3040
Q 2356 3103 2088 3103
Q 1634 3103 1373 2948
Q 1113 2794 1113 2528
Q 1113 2219 1719 2053
Q 1766 2041 1788 2034
L 1972 1978
Q 2547 1819 2739 1644
Q 2931 1469 2931 1166
Q 2931 609 2489 259
Q 2047 -91 1331 -91
Q 1053 -91 747 -37
Q 441 16 72 128
L 184 722
Q 500 559 806 475
Q 1113 391 1394 391
Q 1816 391 2080 572
Q 2344 753 2344 1031
Q 2344 1331 1650 1516
L 1591 1531
L 1394 1581
Q 956 1697 753 1886
Q 550 2075 550 2369
Q 550 2928 970 3256
Q 1391 3584 2113 3584
Q 2397 3584 2667 3537
Q 2938 3491 3200 3397
z
" transform="scale(0.015625)"/>
      <path id="DejaVuSans-3d" d="M 678 2906
L 4684 2906
L 4684 2381
L 678 2381
L 678 2906
z
M 678 1631
L 4684 1631
L 4684 1100
L 678 1100
L 678 1631
z
" transform="scale(0.015625)"/>
     </defs>
     <use xlink:href="#DejaVuSans-Oblique-3c1" transform="translate(0 0.78125)"/>
     <use xlink:href="#DejaVuSans-Oblique-73" transform="translate(63.476562 -15.625) scale(0.7)"/>
     <use xlink:href="#DejaVuSans-3d" transform="translate(122.163086 0.78125)"/>
     <use xlink:href="#DejaVuSans-30" transform="translate(225.43457 0.78125)"/>
     <use xlink:href="#DejaVuSans-2e" transform="translate(289.057617 0.78125)"/>
     <use xlink:href="#DejaVuSans-31" transform="translate(320.844727 0.78125)"/>
     <use xlink:href="#DejaVuSans-30" transform="translate(384.467773 0.78125)"/>
     <use xlink:href="#DejaVuSans-32" transform="translate(448.09082 0.78125)"/>
    </g>
    <!-- $p=6.7e-01$ -->
    <g transform="translate(65.592581 42.743748) scale(0.11 -0.11)">
     <defs>
      <path id="DejaVuSans-Oblique-70" d="M 3175 2156
Q 3175 2616 2975 2859
Q 2775 3103 2400 3103
Q 2144 3103 1911 2972
Q 1678 2841 1497 2591
Q 1319 2344 1212 1994
Q 1106 1644 1106 1300
Q 1106 863 1306 627
Q 1506 391 1875 391
Q 2147 391 2380 519
Q 2613 647 2778 891
Q 2956 1147 3065 1494
Q 3175 1841 3175 2156
z
M 1394 2969
Q 1625 3272 1939 3428
Q 2253 3584 2638 3584
Q 3175 3584 3472 3232
Q 3769 2881 3769 2247
Q 3769 1728 3584 1258
Q 3400 788 3053 416
Q 2822 169 2531 39
Q 2241 -91 1919 -91
Q 1547 -91 1294 64
Q 1041 219 916 525
L 556 -1331
L -19 -1331
L 922 3500
L 1497 3500
L 1394 2969
z
" transform="scale(0.015625)"/>
      <path id="DejaVuSans-37" d="M 525 4666
L 3525 4666
L 3525 4397
L 1831 0
L 1172 0
L 2766 4134
L 525 4134
L 525 4666
z
" transform="scale(0.015625)"/>
      <path id="DejaVuSans-Oblique-65" d="M 3078 2063
Q 3088 2113 3092 2166
Q 3097 2219 3097 2272
Q 3097 2653 2873 2875
Q 2650 3097 2266 3097
Q 1838 3097 1509 2826
Q 1181 2556 1013 2059
L 3078 2063
z
M 3578 1613
L 903 1613
Q 884 1494 878 1425
Q 872 1356 872 1306
Q 872 872 1139 634
Q 1406 397 1894 397
Q 2269 397 2603 481
Q 2938 566 3225 728
L 3116 159
Q 2806 34 2476 -28
Q 2147 -91 1806 -91
Q 1078 -91 686 257
Q 294 606 294 1247
Q 294 1794 489 2264
Q 684 2734 1063 3103
Q 1306 3334 1642 3459
Q 1978 3584 2356 3584
Q 2950 3584 3301 3228
Q 3653 2872 3653 2272
Q 3653 2128 3634 1964
Q 3616 1800 3578 1613
z
" transform="scale(0.015625)"/>
     </defs>
     <use xlink:href="#DejaVuSans-Oblique-70" transform="translate(0 0.78125)"/>
     <use xlink:href="#DejaVuSans-3d" transform="translate(82.958984 0.78125)"/>
     <use xlink:href="#DejaVuSans-36" transform="translate(186.230469 0.78125)"/>
     <use xlink:href="#DejaVuSans-2e" transform="translate(249.853516 0.78125)"/>
     <use xlink:href="#DejaVuSans-37" transform="translate(273.890625 0.78125)"/>
     <use xlink:href="#DejaVuSans-Oblique-65" transform="translate(337.513672 0.78125)"/>
     <use xlink:href="#DejaVuSans-2212" transform="translate(418.519531 0.78125)"/>
     <use xlink:href="#DejaVuSans-30" transform="translate(521.791016 0.78125)"/>
     <use xlink:href="#DejaVuSans-31" transform="translate(585.414062 0.78125)"/>
    </g>
   </g>
  </g>
 </g>
 <defs>
  <clipPath id="p9434c4d02f">
   <rect x="52.675625" y="10.416109" width="322.923895" height="233.035278"/>
  </clipPath>
 </defs>
</svg>
