<?xml version="1.0" encoding="utf-8" standalone="no"?>
<!DOCTYPE svg PUBLIC "-//W3C//DTD SVG 1.1//EN"
  "http://www.w3.org/Graphics/SVG/1.1/DTD/svg11.dtd">
<svg xmlns:xlink="http://www.w3.org/1999/xlink" width="382.79952pt" height="281.99952pt" viewBox="0 0 382.79952 281.99952" xmlns="http://www.w3.org/2000/svg" version="1.1">
 <metadata>
  <rdf:RDF xmlns:dc="http://purl.org/dc/elements/1.1/" xmlns:cc="http://creativecommons.org/ns#" xmlns:rdf="http://www.w3.org/1999/02/22-rdf-syntax-ns#">
   <cc:Work>
    <dc:type rdf:resource="http://purl.org/dc/dcmitype/StillImage"/>
    <dc:date>2026-09-11T17:13:51.561280</dc:date>
    <dc:format>image/svg+xml</dc:format>
    <dc:creator>
     <cc:Agent>
      <dc:title>Matplotlib v3.10.8, https://matplotlib.org/</dc:title>
     </cc:Agent>
    </dc:creator>
   </cc:Work>
  </rdf:RDF>
 </metadata>
 <defs>
  <style type="text/css">*{stroke-linejoin: round; stroke-linecap: butt}</style>
 </defs>
 <g id="figure_1">
  <g id="patch_1">
   <path d="M 0 281.99952
L 382.79952 281.99952
L 382.79952 0
L 0 0
z
" style="fill: #ffffff"/>
  </g>
  <g id="axes_1">
   <g id="patch_2">
    <path d="M 52.675625 243.475457
L 375.59952 243.475457
L 375.59952 7.2
L 52.675625 7.2
z
" style="fill: #ffffff"/>
   </g>
   <g id="matplotlib.axis_1">
    <g id="xtick_1">
     <g id="line2d_1">
      <path d="M 67.353984 243.475457
L 67.353984 7.2
" clip-path="url(#paa7364ff42)" style="fill: none; stroke: #e4e7eb; stroke-width: 0.65; stroke-linecap: square"/>
     </g>
     <g id="line2d_2">
      <defs>
       <path id="ma8efa2a646" d="M 0 0
L 0 3.5
" style="stroke: #000000; stroke-width: 0.8"/>
      </defs>
      <g>
       <use xlink:href="#ma8efa2a646" x="67.353984" y="243.475457" style="stroke: #000000; stroke-width: 0.8"/>
      </g>
     </g>
     <g id="text_1">
      <!-- 0 -->
      <g transform="translate(64.172734 258.073895) scale(0.1 -0.1)">
       <defs>
        <path id="DejaVuSans-30" d="M 2034 4250
Q 1547 4250 1301 3770
Q 1056 3291 1056 2328
Q 1056 1369 1301 889
Q 1547 409 2034 409
Q 2525 409 2770 889
Q 3016 1369 3016 2328
Q 3016 3291 2770 3770
Q 2525 4250 2034 4250
z
M 2034 4750
Q 2819 4750 3233 4129
Q 3647 3509 3647 2328
Q 3647 1150 3233 529
Q 2819 -91 2034 -91
Q 1250 -91 836 529
Q 422 1150 422 2328
Q 422 3509 836 4129
Q 1250 4750 2034 4750
z
" transform="scale(0.015625)"/>
       </defs>
       <use xlink:href="#DejaVuSans-30"/>
      </g>
     </g>
    </g>
    <g id="xtick_2">
     <g id="line2d_3">
      <path d="M 126.067419 243.475457
L 126.067419 7.2
" clip-path="url(#paa7364ff42)" style="fill: none; stroke: #e4e7eb; stroke-width: 0.65; stroke-linecap: square"/>
     </g>
     <g id="line2d_4">
      <g>
       <use xlink:href="#ma8efa2a646" x="126.067419" y="243.475457" style="stroke: #000000; stroke-width: 0.8"/>
      </g>
     </g>
     <g id="text_2">
      <!-- 1000 -->
      <g transform="translate(113.342419 258.073895) scale(0.1 -0.1)">
       <defs>
        <path id="DejaVuSans-31" d="M 794 531
L 1825 531
L 1825 4091
L 703 3866
L 703 4441
L 1819 4666
L 2450 4666
L 2450 531
L 3481 531
L 3481 0
L 794 0
L 794 531
z
" transform="scale(0.015625)"/>
       </defs>
       <use xlink:href="#DejaVuSans-31"/>
       <use xlink:href="#DejaVuSans-30" transform="translate(63.623047 0)"/>
       <use xlink:href="#DejaVuSans-30" transform="translate(127.246094 0)"/>
       <use xlink:href="#DejaVuSans-30" transform="translate(190.869141 0)"/>
      </g>
     </g>
    </g>
    <g id="xtick_3">
     <g id="line2d_5">
      <path d="M 184.780855 243.475457
L 184.780855 7.2
" clip-path="url(#paa7364ff42)" style="fill: none; stroke: #e4e7eb; stroke-width: 0.65; stroke-linecap: square"/>
     </g>
     <g id="line2d_6">
      <g>
       <use xlink:href="#ma8efa2a646" x="184.780855" y="243.475457" style="stroke: #000000; stroke-width: 0.8"/>
      </g>
     </g>
     <g id="text_3">
      <!-- 2000 -->
      <g transform="translate(172.055855 258.073895) scale(0.1 -0.1)">
       <defs>
        <path id="DejaVuSans-32" d="M 1228 531
L 3431 531
L 3431 0
L 469 0
L 469 531
Q 828 903 1448 1529
Q 2069 2156 2228 2338
Q 2531 2678 2651 2914
Q 2772 3150 2772 3378
Q 2772 3750 2511 3984
Q 2250 4219 1831 4219
Q 1534 4219 1204 4116
Q 875 4013 500 3803
L 500 4441
Q 881 4594 1212 4672
Q 1544 4750 1819 4750
Q 2544 4750 2975 4387
Q 3406 4025 3406 3419
Q 3406 3131 3298 2873
Q 3191 2616 2906 2266
Q 2828 2175 2409 1742
Q 1991 1309 1228 531
z
" transform="scale(0.015625)"/>
       </defs>
       <use xlink:href="#DejaVuSans-32"/>
       <use xlink:href="#DejaVuSans-30" transform="translate(63.623047 0)"/>
       <use xlink:href="#DejaVuSans-30" transform="translate(127.246094 0)"/>
       <use xlink:href="#DejaVuSans-30" transform="translate(190.869141 0)"/>
      </g>
     </g>
    </g>
    <g id="xtick_4">
     <g id="line2d_7">
      <path d="M 243.49429 243.475457
L 243.49429 7.2
" clip-path="url(#paa7364ff42)" style="fill: none; stroke: #e4e7eb; stroke-width: 0.65; stroke-linecap: square"/>
     </g>
     <g id="line2d_8">
      <g>
       <use xlink:href="#ma8efa2a646" x="243.49429" y="243.475457" style="stroke: #000000; stroke-width: 0.8"/>
      </g>
     </g>
     <g id="text_4">
      <!-- 3000 -->
      <g transform="translate(230.76929 258.073895) scale(0.1 -0.1)">
       <defs>
        <path id="DejaVuSans-33" d="M 2597 2516
Q 3050 2419 3304 2112
Q 3559 1806 3559 1356
Q 3559 666 3084 287
Q 2609 -91 1734 -91
Q 1441 -91 1130 -33
Q 819 25 488 141
L 488 750
Q 750 597 1062 519
Q 1375 441 1716 441
Q 2309 441 2620 675
Q 2931 909 2931 1356
Q 2931 1769 2642 2001
Q 2353 2234 1838 2234
L 1294 2234
L 1294 2753
L 1863 2753
Q 2328 2753 2575 2939
Q 2822 3125 2822 3475
Q 2822 3834 2567 4026
Q 2313 4219 1838 4219
Q 1578 4219 1281 4162
Q 984 4106 628 3988
L 628 4550
Q 988 4650 1302 4700
Q 1616 4750 1894 4750
Q 2613 4750 3031 4423
Q 3450 4097 3450 3541
Q 3450 3153 3228 2886
Q 3006 2619 2597 2516
z
" transform="scale(0.015625)"/>
       </defs>
       <use xlink:href="#DejaVuSans-33"/>
       <use xlink:href="#DejaVuSans-30" transform="translate(63.623047 0)"/>
       <use xlink:href="#DejaVuSans-30" transform="translate(127.246094 0)"/>
       <use xlink:href="#DejaVuSans-30" transform="translate(190.869141 0)"/>
      </g>
     </g>
    </g>
    <g id="xtick_5">
     <g id="line2d_9">
      <path d="M 302.207726 243.475457
L 302.207726 7.2
" clip-path="url(#paa7364ff42)" style="fill: none; stroke: #e4e7eb; stroke-width: 0.65; stroke-linecap: square"/>
     </g>
     <g id="line2d_10">
      <g>
       <use xlink:href="#ma8efa2a646" x="302.207726" y="243.475457" style="stroke: #000000; stroke-width: 0.8"/>
      </g>
     </g>
     <g id="text_5">
      <!-- 4000 -->
      <g transform="translate(289.482726 258.073895) scale(0.1 -0.1)">
       <defs>
        <path id="DejaVuSans-34" d="M 2419 4116
L 825 1625
L 2419 1625
L 2419 4116
z
M 2253 4666
L 3047 4666
L 3047 1625
L 3713 1625
L 3713 1100
L 3047 1100
L 3047 0
L 2419 0
L 2419 1100
L 313 1100
L 313 1709
L 2253 4666
z
" transform="scale(0.015625)"/>
       </defs>
       <use xlink:href="#DejaVuSans-34"/>
       <use xlink:href="#DejaVuSans-30" transform="translate(63.623047 0)"/>
       <use xlink:href="#DejaVuSans-30" transform="translate(127.246094 0)"/>
       <use xlink:href="#DejaVuSans-30" transform="translate(190.869141 0)"/>
      </g>
     </g>
    </g>
    <g id="xtick_6">
     <g id="line2d_11">
      <path d="M 360.921161 243.475457
L 360.921161 7.2
" clip-path="url(#paa7364ff42)" style="fill: none; stroke: #e4e7eb; stroke-width: 0.65; stroke-linecap: square"/>
     </g>
     <g id="line2d_12">
      <g>
       <use xlink:href="#ma8efa2a646" x="360.921161" y="243.475457" style="stroke: #000000; stroke-width: 0.8"/>
      </g>
     </g>
     <g id="text_6">
      <!-- 5000 -->
      <g transform="translate(348.196161 258.073895) scale(0.1 -0.1)">
       <defs>
        <path id="DejaVuSans-35" d="M 691 4666
L 3169 4666
L 3169 4134
L 1269 4134
L 1269 2991
Q 1406 3038 1543 3061
Q 1681 3084 1819 3084
Q 2600 3084 3056 2656
Q 3513 2228 3513 1497
Q 3513 744 3044 326
Q 2575 -91 1722 -91
Q 1428 -91 1123 -41
Q 819 9 494 109
L 494 744
Q 775 591 1075 516
Q 1375 441 1709 441
Q 2250 441 2565 725
Q 2881 1009 2881 1497
Q 2881 1984 2565 2268
Q 2250 2553 1709 2553
Q 1456 2553 1204 2497
Q 953 2441 691 2322
L 691 4666
z
" transform="scale(0.015625)"/>
       </defs>
       <use xlink:href="#DejaVuSans-35"/>
       <use xlink:href="#DejaVuSans-30" transform="translate(63.623047 0)"/>
       <use xlink:href="#DejaVuSans-30" transform="translate(127.246094 0)"/>
       <use xlink:href="#DejaVuSans-30" transform="translate(190.869141 0)"/>
      </g>
     </g>
    </g>
    <g id="text_7">
     <!-- Time [s] -->
     <g transform="translate(191.775776 272.511864) scale(0.11 -0.11)">
      <defs>
       <path id="DejaVuSans-54" d="M -19 4666
L 3928 4666
L 3928 4134
L 2272 4134
L 2272 0
L 1638 0
L 1638 4134
L -19 4134
L -19 4666
z
" transform="scale(0.015625)"/>
       <path id="DejaVuSans-69" d="M 603 3500
L 1178 3500
L 1178 0
L 603 0
L 603 3500
z
M 603 4863
L 1178 4863
L 1178 4134
L 603 4134
L 603 4863
z
" transform="scale(0.015625)"/>
       <path id="DejaVuSans-6d" d="M 3328 2828
Q 3544 3216 3844 3400
Q 4144 3584 4550 3584
Q 5097 3584 5394 3201
Q 5691 2819 5691 2113
L 5691 0
L 5113 0
L 5113 2094
Q 5113 2597 4934 2840
Q 4756 3084 4391 3084
Q 3944 3084 3684 2787
Q 3425 2491 3425 1978
L 3425 0
L 2847 0
L 2847 2094
Q 2847 2600 2669 2842
Q 2491 3084 2119 3084
Q 1678 3084 1418 2786
Q 1159 2488 1159 1978
L 1159 0
L 581 0
L 581 3500
L 1159 3500
L 1159 2956
Q 1356 3278 1631 3431
Q 1906 3584 2284 3584
Q 2666 3584 2933 3390
Q 3200 3197 3328 2828
z
" transform="scale(0.015625)"/>
       <path id="DejaVuSans-65" d="M 3597 1894
L 3597 1613
L 953 1613
Q 991 1019 1311 708
Q 1631 397 2203 397
Q 2534 397 2845 478
Q 3156 559 3463 722
L 3463 178
Q 3153 47 2828 -22
Q 2503 -91 2169 -91
Q 1331 -91 842 396
Q 353 884 353 1716
Q 353 2575 817 3079
Q 1281 3584 2069 3584
Q 2775 3584 3186 3129
Q 3597 2675 3597 1894
z
M 3022 2063
Q 3016 2534 2758 2815
Q 2500 3097 2075 3097
Q 1594 3097 1305 2825
Q 1016 2553 972 2059
L 3022 2063
z
" transform="scale(0.015625)"/>
       <path id="DejaVuSans-20" transform="scale(0.015625)"/>
       <path id="DejaVuSans-5b" d="M 550 4863
L 1875 4863
L 1875 4416
L 1125 4416
L 1125 -397
L 1875 -397
L 1875 -844
L 550 -844
L 550 4863
z
" transform="scale(0.015625)"/>
       <path id="DejaVuSans-73" d="M 2834 3397
L 2834 2853
Q 2591 2978 2328 3040
Q 2066 3103 1784 3103
Q 1356 3103 1142 2972
Q 928 2841 928 2578
Q 928 2378 1081 2264
Q 1234 2150 1697 2047
L 1894 2003
Q 2506 1872 2764 1633
Q 3022 1394 3022 966
Q 3022 478 2636 193
Q 2250 -91 1575 -91
Q 1294 -91 989 -36
Q 684 19 347 128
L 347 722
Q 666 556 975 473
Q 1284 391 1588 391
Q 1994 391 2212 530
Q 2431 669 2431 922
Q 2431 1156 2273 1281
Q 2116 1406 1581 1522
L 1381 1569
Q 847 1681 609 1914
Q 372 2147 372 2553
Q 372 3047 722 3315
Q 1072 3584 1716 3584
Q 2034 3584 2315 3537
Q 2597 3491 2834 3397
z
" transform="scale(0.015625)"/>
       <path id="DejaVuSans-5d" d="M 1947 4863
L 1947 -844
L 622 -844
L 622 -397
L 1369 -397
L 1369 4416
L 622 4416
L 622 4863
L 1947 4863
z
" transform="scale(0.015625)"/>
      </defs>
      <use xlink:href="#DejaVuSans-54"/>
      <use xlink:href="#DejaVuSans-69" transform="translate(57.958984 0)"/>
      <use xlink:href="#DejaVuSans-6d" transform="translate(85.742188 0)"/>
      <use xlink:href="#DejaVuSans-65" transform="translate(183.154297 0)"/>
      <use xlink:href="#DejaVuSans-20" transform="translate(244.677734 0)"/>
      <use xlink:href="#DejaVuSans-5b" transform="translate(276.464844 0)"/>
      <use xlink:href="#DejaVuSans-73" transform="translate(315.478516 0)"/>
      <use xlink:href="#DejaVuSans-5d" transform="translate(367.578125 0)"/>
     </g>
    </g>
   </g>
   <g id="matplotlib.axis_2">
    <g id="ytick_1">
     <g id="line2d_13">
      <path d="M 52.675625 232.735664
L 375.59952 232.735664
" clip-path="url(#paa7364ff42)" style="fill: none; stroke: #e4e7eb; stroke-width: 0.65; stroke-linecap: square"/>
     </g>
     <g id="line2d_14">
      <defs>
       <path id="meb3aa47fed" d="M 0 0
L -3.5 0
" style="stroke: #000000; stroke-width: 0.8"/>
      </defs>
      <g>
       <use xlink:href="#meb3aa47fed" x="52.675625" y="232.735664" style="stroke: #000000; stroke-width: 0.8"/>
      </g>
     </g>
     <g id="text_8">
      <!-- 0.00 -->
      <g transform="translate(23.41 236.534883) scale(0.1 -0.1)">
       <defs>
        <path id="DejaVuSans-2e" d="M 684 794
L 1344 794
L 1344 0
L 684 0
L 684 794
z
" transform="scale(0.015625)"/>
       </defs>
       <use xlink:href="#DejaVuSans-30"/>
       <use xlink:href="#DejaVuSans-2e" transform="translate(63.623047 0)"/>
       <use xlink:href="#DejaVuSans-30" transform="translate(95.410156 0)"/>
       <use xlink:href="#DejaVuSans-30" transform="translate(159.033203 0)"/>
      </g>
     </g>
    </g>
    <g id="ytick_2">
     <g id="line2d_15">
      <path d="M 52.675625 198.62339
L 375.59952 198.62339
" clip-path="url(#paa7364ff42)" style="fill: none; stroke: #e4e7eb; stroke-width: 0.65; stroke-linecap: square"/>
     </g>
     <g id="line2d_16">
      <g>
       <use xlink:href="#meb3aa47fed" x="52.675625" y="198.62339" style="stroke: #000000; stroke-width: 0.8"/>
      </g>
     </g>
     <g id="text_9">
      <!-- 0.05 -->
      <g transform="translate(23.41 202.422608) scale(0.1 -0.1)">
       <use xlink:href="#DejaVuSans-30"/>
       <use xlink:href="#DejaVuSans-2e" transform="translate(63.623047 0)"/>
       <use xlink:href="#DejaVuSans-30" transform="translate(95.410156 0)"/>
       <use xlink:href="#DejaVuSans-35" transform="translate(159.033203 0)"/>
      </g>
     </g>
    </g>
    <g id="ytick_3">
     <g id="line2d_17">
      <path d="M 52.675625 164.511115
L 375.59952 164.511115
" clip-path="url(#paa7364ff42)" style="fill: none; stroke: #e4e7eb; stroke-width: 0.65; stroke-linecap: square"/>
     </g>
     <g id="line2d_18">
      <g>
       <use xlink:href="#meb3aa47fed" x="52.675625" y="164.511115" style="stroke: #000000; stroke-width: 0.8"/>
      </g>
     </g>
     <g id="text_10">
      <!-- 0.10 -->
      <g transform="translate(23.41 168.310334) scale(0.1 -0.1)">
       <use xlink:href="#DejaVuSans-30"/>
       <use xlink:href="#DejaVuSans-2e" transform="translate(63.623047 0)"/>
       <use xlink:href="#DejaVuSans-31" transform="translate(95.410156 0)"/>
       <use xlink:href="#DejaVuSans-30" transform="translate(159.033203 0)"/>
      </g>
     </g>
    </g>
    <g id="ytick_4">
     <g id="line2d_19">
      <path d="M 52.675625 130.398841
L 375.59952 130.398841
" clip-path="url(#paa7364ff42)" style="fill: none; stroke: #e4e7eb; stroke-width: 0.65; stroke-linecap: square"/>
     </g>
     <g id="line2d_20">
      <g>
       <use xlink:href="#meb3aa47fed" x="52.675625" y="130.398841" style="stroke: #000000; stroke-width: 0.8"/>
      </g>
     </g>
     <g id="text_11">
      <!-- 0.15 -->
      <g transform="translate(23.41 134.198059) scale(0.1 -0.1)">
       <use xlink:href="#DejaVuSans-30"/>
       <use xlink:href="#DejaVuSans-2e" transform="translate(63.623047 0)"/>
       <use xlink:href="#DejaVuSans-31" transform="translate(95.410156 0)"/>
       <use xlink:href="#DejaVuSans-35" transform="translate(159.033203 0)"/>
      </g>
     </g>
    </g>
    <g id="ytick_5">
     <g id="line2d_21">
      <path d="M 52.675625 96.286566
L 375.59952 96.286566
" clip-path="url(#paa7364ff42)" style="fill: none; stroke: #e4e7eb; stroke-width: 0.65; stroke-linecap: square"/>
     </g>
     <g id="line2d_22">
      <g>
       <use xlink:href="#meb3aa47fed" x="52.675625" y="96.286566" style="stroke: #000000; stroke-width: 0.8"/>
      </g>
     </g>
     <g id="text_12">
      <!-- 0.20 -->
      <g transform="translate(23.41 100.085785) scale(0.1 -0.1)">
       <use xlink:href="#DejaVuSans-30"/>
       <use xlink:href="#DejaVuSans-2e" transform="translate(63.623047 0)"/>
       <use xlink:href="#DejaVuSans-32" transform="translate(95.410156 0)"/>
       <use xlink:href="#DejaVuSans-30" transform="translate(159.033203 0)"/>
      </g>
     </g>
    </g>
    <g id="ytick_6">
     <g id="line2d_23">
      <path d="M 52.675625 62.174292
L 375.59952 62.174292
" clip-path="url(#paa7364ff42)" style="fill: none; stroke: #e4e7eb; stroke-width: 0.65; stroke-linecap: square"/>
     </g>
     <g id="line2d_24">
      <g>
       <use xlink:href="#meb3aa47fed" x="52.675625" y="62.174292" style="stroke: #000000; stroke-width: 0.8"/>
      </g>
     </g>
     <g id="text_13">
      <!-- 0.25 -->
      <g transform="translate(23.41 65.97351) scale(0.1 -0.1)">
       <use xlink:href="#DejaVuSans-30"/>
       <use xlink:href="#DejaVuSans-2e" transform="translate(63.623047 0)"/>
       <use xlink:href="#DejaVuSans-32" transform="translate(95.410156 0)"/>
       <use xlink:href="#DejaVuSans-35" transform="translate(159.033203 0)"/>
      </g>
     </g>
    </g>
    <g id="ytick_7">
     <g id="line2d_25">
      <path d="M 52.675625 28.062017
L 375.59952 28.062017
" clip-path="url(#paa7364ff42)" style="fill: none; stroke: #e4e7eb; stroke-width: 0.65; stroke-linecap: square"/>
     </g>
     <g id="line2d_26">
      <g>
       <use xlink:href="#meb3aa47fed" x="52.675625" y="28.062017" style="stroke: #000000; stroke-width: 0.8"/>
      </g>
     </g>
     <g id="text_14">
      <!-- 0.30 -->
      <g transform="translate(23.41 31.861236) scale(0.1 -0.1)">
       <use xlink:href="#DejaVuSans-30"/>
       <use xlink:href="#DejaVuSans-2e" transform="translate(63.623047 0)"/>
       <use xlink:href="#DejaVuSans-33" transform="translate(95.410156 0)"/>
       <use xlink:href="#DejaVuSans-30" transform="translate(159.033203 0)"/>
      </g>
     </g>
    </g>
    <g id="text_15">
     <!-- Mean loading [mol kg$^{-1}$] -->
     <g transform="translate(17.1 192.932729) rotate(-90) scale(0.11 -0.11)">
      <defs>
       <path id="DejaVuSans-4d" d="M 628 4666
L 1569 4666
L 2759 1491
L 3956 4666
L 4897 4666
L 4897 0
L 4281 0
L 4281 4097
L 3078 897
L 2444 897
L 1241 4097
L 1241 0
L 628 0
L 628 4666
z
" transform="scale(0.015625)"/>
       <path id="DejaVuSans-61" d="M 2194 1759
Q 1497 1759 1228 1600
Q 959 1441 959 1056
Q 959 750 1161 570
Q 1363 391 1709 391
Q 2188 391 2477 730
Q 2766 1069 2766 1631
L 2766 1759
L 2194 1759
z
M 3341 1997
L 3341 0
L 2766 0
L 2766 531
Q 2569 213 2275 61
Q 1981 -91 1556 -91
Q 1019 -91 701 211
Q 384 513 384 1019
Q 384 1609 779 1909
Q 1175 2209 1959 2209
L 2766 2209
L 2766 2266
Q 2766 2663 2505 2880
Q 2244 3097 1772 3097
Q 1472 3097 1187 3025
Q 903 2953 641 2809
L 641 3341
Q 956 3463 1253 3523
Q 1550 3584 1831 3584
Q 2591 3584 2966 3190
Q 3341 2797 3341 1997
z
" transform="scale(0.015625)"/>
       <path id="DejaVuSans-6e" d="M 3513 2113
L 3513 0
L 2938 0
L 2938 2094
Q 2938 2591 2744 2837
Q 2550 3084 2163 3084
Q 1697 3084 1428 2787
Q 1159 2491 1159 1978
L 1159 0
L 581 0
L 581 3500
L 1159 3500
L 1159 2956
Q 1366 3272 1645 3428
Q 1925 3584 2291 3584
Q 2894 3584 3203 3211
Q 3513 2838 3513 2113
z
" transform="scale(0.015625)"/>
       <path id="DejaVuSans-6c" d="M 603 4863
L 1178 4863
L 1178 0
L 603 0
L 603 4863
z
" transform="scale(0.015625)"/>
       <path id="DejaVuSans-6f" d="M 1959 3097
Q 1497 3097 1228 2736
Q 959 2375 959 1747
Q 959 1119 1226 758
Q 1494 397 1959 397
Q 2419 397 2687 759
Q 2956 1122 2956 1747
Q 2956 2369 2687 2733
Q 2419 3097 1959 3097
z
M 1959 3584
Q 2709 3584 3137 3096
Q 3566 2609 3566 1747
Q 3566 888 3137 398
Q 2709 -91 1959 -91
Q 1206 -91 779 398
Q 353 888 353 1747
Q 353 2609 779 3096
Q 1206 3584 1959 3584
z
" transform="scale(0.015625)"/>
       <path id="DejaVuSans-64" d="M 2906 2969
L 2906 4863
L 3481 4863
L 3481 0
L 2906 0
L 2906 525
Q 2725 213 2448 61
Q 2172 -91 1784 -91
Q 1150 -91 751 415
Q 353 922 353 1747
Q 353 2572 751 3078
Q 1150 3584 1784 3584
Q 2172 3584 2448 3432
Q 2725 3281 2906 2969
z
M 947 1747
Q 947 1113 1208 752
Q 1469 391 1925 391
Q 2381 391 2643 752
Q 2906 1113 2906 1747
Q 2906 2381 2643 2742
Q 2381 3103 1925 3103
Q 1469 3103 1208 2742
Q 947 2381 947 1747
z
" transform="scale(0.015625)"/>
       <path id="DejaVuSans-67" d="M 2906 1791
Q 2906 2416 2648 2759
Q 2391 3103 1925 3103
Q 1463 3103 1205 2759
Q 947 2416 947 1791
Q 947 1169 1205 825
Q 1463 481 1925 481
Q 2391 481 2648 825
Q 2906 1169 2906 1791
z
M 3481 434
Q 3481 -459 3084 -895
Q 2688 -1331 1869 -1331
Q 1566 -1331 1297 -1286
Q 1028 -1241 775 -1147
L 775 -588
Q 1028 -725 1275 -790
Q 1522 -856 1778 -856
Q 2344 -856 2625 -561
Q 2906 -266 2906 331
L 2906 616
Q 2728 306 2450 153
Q 2172 0 1784 0
Q 1141 0 747 490
Q 353 981 353 1791
Q 353 2603 747 3093
Q 1141 3584 1784 3584
Q 2172 3584 2450 3431
Q 2728 3278 2906 2969
L 2906 3500
L 3481 3500
L 3481 434
z
" transform="scale(0.015625)"/>
       <path id="DejaVuSans-6b" d="M 581 4863
L 1159 4863
L 1159 1991
L 2875 3500
L 3609 3500
L 1753 1863
L 3688 0
L 2938 0
L 1159 1709
L 1159 0
L 581 0
L 581 4863
z
" transform="scale(0.015625)"/>
       <path id="DejaVuSans-2212" d="M 678 2272
L 4684 2272
L 4684 1741
L 678 1741
L 678 2272
z
" transform="scale(0.015625)"/>
      </defs>
      <use xlink:href="#DejaVuSans-4d" transform="translate(0 0.684375)"/>
      <use xlink:href="#DejaVuSans-65" transform="translate(86.279297 0.684375)"/>
      <use xlink:href="#DejaVuSans-61" transform="translate(147.802734 0.684375)"/>
      <use xlink:href="#DejaVuSans-6e" transform="translate(209.082031 0.684375)"/>
      <use xlink:href="#DejaVuSans-20" transform="translate(272.460938 0.684375)"/>
      <use xlink:href="#DejaVuSans-6c" transform="translate(304.248047 0.684375)"/>
      <use xlink:href="#DejaVuSans-6f" transform="translate(332.03125 0.684375)"/>
      <use xlink:href="#DejaVuSans-61" transform="translate(393.212891 0.684375)"/>
      <use xlink:href="#DejaVuSans-64" transform="translate(454.492188 0.684375)"/>
      <use xlink:href="#DejaVuSans-69" transform="translate(517.96875 0.684375)"/>
      <use xlink:href="#DejaVuSans-6e" transform="translate(545.751953 0.684375)"/>
      <use xlink:href="#DejaVuSans-67" transform="translate(609.130859 0.684375)"/>
      <use xlink:href="#DejaVuSans-20" transform="translate(672.607422 0.684375)"/>
      <use xlink:href="#DejaVuSans-5b" transform="translate(704.394531 0.684375)"/>
      <use xlink:href="#DejaVuSans-6d" transform="translate(743.408203 0.684375)"/>
      <use xlink:href="#DejaVuSans-6f" transform="translate(840.820312 0.684375)"/>
      <use xlink:href="#DejaVuSans-6c" transform="translate(902.001953 0.684375)"/>
      <use xlink:href="#DejaVuSans-20" transform="translate(929.785156 0.684375)"/>
      <use xlink:href="#DejaVuSans-6b" transform="translate(961.572266 0.684375)"/>
      <use xlink:href="#DejaVuSans-67" transform="translate(1019.482422 0.684375)"/>
      <use xlink:href="#DejaVuSans-2212" transform="translate(1083.916016 38.965625) scale(0.7)"/>
      <use xlink:href="#DejaVuSans-31" transform="translate(1142.568359 38.965625) scale(0.7)"/>
      <use xlink:href="#DejaVuSans-5d" transform="translate(1189.838867 0.684375)"/>
     </g>
    </g>
   </g>
   <g id="line2d_27">
    <path d="M 67.353984 232.735664
L 67.392719 232.631064
L 68.915189 228.587546
L 70.623852 224.673489
L 72.386918 221.188928
L 74.202563 218.067764
L 76.1164 215.184593
L 78.56506 211.968776
L 80.840968 209.346249
L 83.578898 206.544199
L 86.872643 203.553705
L 90.835035 200.351843
L 95.601814 196.899018
L 101.336274 193.138498
L 108.234861 188.998841
L 116.533898 184.397192
L 126.517683 179.242338
L 134.275694 175.449702
L 143.050995 171.335536
L 152.976984 166.865649
L 164.204546 162.002927
L 176.904355 156.706784
L 191.269462 150.93271
L 207.518236 144.632009
L 225.897676 137.751588
L 246.687174 130.233973
L 270.202754 122.017414
L 296.801883 113.036137
L 326.888899 103.220621
L 360.921161 92.497883
L 360.921161 92.497883
" clip-path="url(#paa7364ff42)" style="fill: none; stroke: #d55e00; stroke-width: 2.1; stroke-linecap: square"/>
   </g>
   <g id="line2d_28">
    <path d="M 67.353984 232.735664
L 67.403544 232.627253
L 69.478398 227.982146
L 71.537618 223.866957
L 73.793372 219.834911
L 76.1164 216.117409
L 78.56506 212.594842
L 80.840968 209.623751
L 83.578898 206.369366
L 86.872643 202.832096
L 90.835035 199.009892
L 93.914055 196.299608
L 97.396821 193.454145
L 101.336274 190.4663
L 105.7923 187.326582
L 110.832635 184.023349
L 116.533898 180.54314
L 122.982756 176.871181
L 130.277238 172.991655
L 138.528231 168.88804
L 147.861159 164.543266
L 158.417894 159.939607
L 170.358911 155.058715
L 183.865728 149.88138
L 199.143666 144.387465
L 216.424967 138.555737
L 235.972328 132.363771
L 258.082894 125.787831
L 283.092771 118.802775
L 296.801883 115.148558
L 311.38214 111.381937
L 326.888899 107.499326
L 343.381034 103.497028
L 360.921161 99.371233
L 360.921161 99.371233
" clip-path="url(#paa7364ff42)" style="fill: none; stroke-dasharray: 4.995,2.16; stroke-dashoffset: 0; stroke: #d55e00; stroke-width: 1.35"/>
   </g>
   <g id="line2d_29">
    <path d="M 67.353984 232.735664
L 67.386183 232.63062
L 69.014396 227.278947
L 70.623852 222.659532
L 72.386918 218.216413
L 74.202563 214.184259
L 76.1164 210.412679
L 78.56506 206.151842
L 80.840968 202.636467
L 83.578898 198.844582
L 86.872643 194.764782
L 90.835035 190.371608
L 93.914055 187.248039
L 97.396821 183.948447
L 101.336274 180.451279
L 105.7923 176.731445
L 110.832635 172.76068
L 116.533898 168.508283
L 122.982756 163.941221
L 130.277238 159.024374
L 138.528231 153.720608
L 147.861159 147.990378
L 158.417894 141.79157
L 170.358911 135.078968
L 183.865728 127.803896
L 199.143666 119.914036
L 216.424967 111.353323
L 235.972328 102.062326
L 258.082894 91.978879
L 283.092771 81.0391
L 296.801883 75.227928
L 311.38214 69.178512
L 326.888899 62.882882
L 343.381034 56.33314
L 360.921161 49.521488
L 360.921161 49.521488
" clip-path="url(#paa7364ff42)" style="fill: none; stroke: #0072b2; stroke-width: 2.1; stroke-linecap: square"/>
   </g>
   <g id="line2d_30">
    <path d="M 67.353984 232.735664
L 67.390405 232.631413
L 69.351468 226.728069
L 71.287653 221.522851
L 73.40863 216.416756
L 75.592861 211.702164
L 77.895218 207.227841
L 80.035144 203.44842
L 82.609488 199.302786
L 85.706437 194.79027
L 89.432083 189.907581
L 92.327137 186.441871
L 95.601814 182.800914
L 99.305892 178.975804
L 103.495678 174.954763
L 108.234861 170.723262
L 113.595484 166.264439
L 119.659033 161.559599
L 126.517683 156.588618
L 134.275694 151.330435
L 143.050995 145.76315
L 152.976984 139.864063
L 164.204546 133.609618
L 176.904355 126.975174
L 191.269462 119.934906
L 207.518236 112.461578
L 216.424967 108.553599
L 225.897676 104.526446
L 235.972328 100.376262
L 246.687174 96.099078
L 258.082894 91.690808
L 270.202754 87.147243
L 283.092771 82.46405
L 296.801883 77.636765
L 311.38214 72.660787
L 326.888899 67.531379
L 343.381034 62.243659
L 360.921161 56.792594
L 360.921161 56.792594
" clip-path="url(#paa7364ff42)" style="fill: none; stroke-dasharray: 4.995,2.16; stroke-dashoffset: 0; stroke: #0072b2; stroke-width: 1.35"/>
   </g>
   <g id="line2d_31">
    <path d="M 67.353984 232.735664
L 67.377646 232.630467
L 69.014396 225.088677
L 70.623852 218.652267
L 72.386918 212.508647
L 74.202563 206.986146
L 76.1164 201.876919
L 77.895218 197.658612
L 80.035144 193.129476
L 82.609488 188.307585
L 84.60991 184.935637
L 86.872643 181.436973
L 89.432083 177.805948
L 92.327137 174.031621
L 95.601814 170.097306
L 99.305892 165.980818
L 103.495678 161.654972
L 108.234861 157.088352
L 113.595484 152.246598
L 119.659033 147.093185
L 126.517683 141.590001
L 134.275694 135.697993
L 143.050995 129.376707
L 152.976984 122.584202
L 164.204546 115.276476
L 176.904355 107.407087
L 191.269462 98.926934
L 207.518236 89.784213
L 225.897676 79.924833
L 235.972328 74.709026
L 246.687174 69.293114
L 258.082894 63.670083
L 270.202754 57.832968
L 283.092771 51.774894
L 296.801883 45.489124
L 311.38214 38.969069
L 326.888899 32.208308
L 343.381034 25.200585
L 360.921161 17.939794
L 360.921161 17.939794
" clip-path="url(#paa7364ff42)" style="fill: none; stroke: #009e73; stroke-width: 2.1; stroke-linecap: square"/>
   </g>
   <g id="line2d_32">
    <path d="M 67.353984 232.735664
L 67.386183 232.62577
L 69.351468 225.496012
L 71.287653 219.233519
L 73.40863 213.097634
L 75.592861 207.437198
L 77.895218 202.068275
L 80.035144 197.534495
L 82.609488 192.56175
L 85.706437 187.148176
L 88.112955 183.291898
L 90.835035 179.233845
L 93.914055 174.967711
L 97.396821 170.484086
L 101.336274 165.770215
L 105.7923 160.810012
L 110.832635 155.584412
L 116.533898 150.072002
L 122.982756 144.249458
L 130.277238 138.09211
L 138.528231 131.574262
L 147.861159 124.669171
L 158.417894 117.349135
L 170.358911 109.585199
L 176.904355 105.527354
L 183.865728 101.347047
L 191.269462 97.040229
L 199.143666 92.602751
L 207.518236 88.030347
L 216.424967 83.318628
L 225.897676 78.463075
L 235.972328 73.459039
L 246.687174 68.30174
L 258.082894 62.986251
L 270.202754 57.507496
L 283.092771 51.860252
L 296.801883 46.039138
L 311.38214 40.038608
L 326.888899 33.852947
L 343.381034 27.476271
L 360.921161 20.902512
L 360.921161 20.902512
" clip-path="url(#paa7364ff42)" style="fill: none; stroke-dasharray: 4.995,2.16; stroke-dashoffset: 0; stroke: #009e73; stroke-width: 1.35"/>
   </g>
   <g id="patch_3">
    <path d="M 52.675625 243.475457
L 52.675625 7.2
" style="fill: none; stroke: #000000; stroke-width: 0.8; stroke-linejoin: miter; stroke-linecap: square"/>
   </g>
   <g id="patch_4">
    <path d="M 52.675625 243.475457
L 375.59952 243.475457
" style="fill: none; stroke: #000000; stroke-width: 0.8; stroke-linejoin: miter; stroke-linecap: square"/>
   </g>
   <g id="legend_1">
    <g id="text_16">
     <!-- Solid: network; dashed: fitted 1D -->
     <g transform="translate(59.875625 22.758281) scale(0.11 -0.11)">
      <defs>
       <path id="DejaVuSans-53" d="M 3425 4513
L 3425 3897
Q 3066 4069 2747 4153
Q 2428 4238 2131 4238
Q 1616 4238 1336 4038
Q 1056 3838 1056 3469
Q 1056 3159 1242 3001
Q 1428 2844 1947 2747
L 2328 2669
Q 3034 2534 3370 2195
Q 3706 1856 3706 1288
Q 3706 609 3251 259
Q 2797 -91 1919 -91
Q 1588 -91 1214 -16
Q 841 59 441 206
L 441 856
Q 825 641 1194 531
Q 1563 422 1919 422
Q 2459 422 2753 634
Q 3047 847 3047 1241
Q 3047 1584 2836 1778
Q 2625 1972 2144 2069
L 1759 2144
Q 1053 2284 737 2584
Q 422 2884 422 3419
Q 422 4038 858 4394
Q 1294 4750 2059 4750
Q 2388 4750 2728 4690
Q 3069 4631 3425 4513
z
" transform="scale(0.015625)"/>
       <path id="DejaVuSans-3a" d="M 750 794
L 1409 794
L 1409 0
L 750 0
L 750 794
z
M 750 3309
L 1409 3309
L 1409 2516
L 750 2516
L 750 3309
z
" transform="scale(0.015625)"/>
       <path id="DejaVuSans-74" d="M 1172 4494
L 1172 3500
L 2356 3500
L 2356 3053
L 1172 3053
L 1172 1153
Q 1172 725 1289 603
Q 1406 481 1766 481
L 2356 481
L 2356 0
L 1766 0
Q 1100 0 847 248
Q 594 497 594 1153
L 594 3053
L 172 3053
L 172 3500
L 594 3500
L 594 4494
L 1172 4494
z
" transform="scale(0.015625)"/>
       <path id="DejaVuSans-77" d="M 269 3500
L 844 3500
L 1563 769
L 2278 3500
L 2956 3500
L 3675 769
L 4391 3500
L 4966 3500
L 4050 0
L 3372 0
L 2619 2869
L 1863 0
L 1184 0
L 269 3500
z
" transform="scale(0.015625)"/>
       <path id="DejaVuSans-72" d="M 2631 2963
Q 2534 3019 2420 3045
Q 2306 3072 2169 3072
Q 1681 3072 1420 2755
Q 1159 2438 1159 1844
L 1159 0
L 581 0
L 581 3500
L 1159 3500
L 1159 2956
Q 1341 3275 1631 3429
Q 1922 3584 2338 3584
Q 2397 3584 2469 3576
Q 2541 3569 2628 3553
L 2631 2963
z
" transform="scale(0.015625)"/>
       <path id="DejaVuSans-3b" d="M 750 3309
L 1409 3309
L 1409 2516
L 750 2516
L 750 3309
z
M 750 794
L 1409 794
L 1409 256
L 897 -744
L 494 -744
L 750 256
L 750 794
z
" transform="scale(0.015625)"/>
       <path id="DejaVuSans-68" d="M 3513 2113
L 3513 0
L 2938 0
L 2938 2094
Q 2938 2591 2744 2837
Q 2550 3084 2163 3084
Q 1697 3084 1428 2787
Q 1159 2491 1159 1978
L 1159 0
L 581 0
L 581 4863
L 1159 4863
L 1159 2956
Q 1366 3272 1645 3428
Q 1925 3584 2291 3584
Q 2894 3584 3203 3211
Q 3513 2838 3513 2113
z
" transform="scale(0.015625)"/>
       <path id="DejaVuSans-66" d="M 2375 4863
L 2375 4384
L 1825 4384
Q 1516 4384 1395 4259
Q 1275 4134 1275 3809
L 1275 3500
L 2222 3500
L 2222 3053
L 1275 3053
L 1275 0
L 697 0
L 697 3053
L 147 3053
L 147 3500
L 697 3500
L 697 3744
Q 697 4328 969 4595
Q 1241 4863 1831 4863
L 2375 4863
z
" transform="scale(0.015625)"/>
       <path id="DejaVuSans-44" d="M 1259 4147
L 1259 519
L 2022 519
Q 2988 519 3436 956
Q 3884 1394 3884 2338
Q 3884 3275 3436 3711
Q 2988 4147 2022 4147
L 1259 4147
z
M 628 4666
L 1925 4666
Q 3281 4666 3915 4102
Q 4550 3538 4550 2338
Q 4550 1131 3912 565
Q 3275 0 1925 0
L 628 0
L 628 4666
z
" transform="scale(0.015625)"/>
      </defs>
      <use xlink:href="#DejaVuSans-53"/>
      <use xlink:href="#DejaVuSans-6f" transform="translate(63.476562 0)"/>
      <use xlink:href="#DejaVuSans-6c" transform="translate(124.658203 0)"/>
      <use xlink:href="#DejaVuSans-69" transform="translate(152.441406 0)"/>
      <use xlink:href="#DejaVuSans-64" transform="translate(180.224609 0)"/>
      <use xlink:href="#DejaVuSans-3a" transform="translate(243.701172 0)"/>
      <use xlink:href="#DejaVuSans-20" transform="translate(277.392578 0)"/>
      <use xlink:href="#DejaVuSans-6e" transform="translate(309.179688 0)"/>
      <use xlink:href="#DejaVuSans-65" transform="translate(372.558594 0)"/>
      <use xlink:href="#DejaVuSans-74" transform="translate(434.082031 0)"/>
      <use xlink:href="#DejaVuSans-77" transform="translate(473.291016 0)"/>
      <use xlink:href="#DejaVuSans-6f" transform="translate(555.078125 0)"/>
      <use xlink:href="#DejaVuSans-72" transform="translate(616.259766 0)"/>
      <use xlink:href="#DejaVuSans-6b" transform="translate(657.373047 0)"/>
      <use xlink:href="#DejaVuSans-3b" transform="translate(715.283203 0)"/>
      <use xlink:href="#DejaVuSans-20" transform="translate(748.974609 0)"/>
      <use xlink:href="#DejaVuSans-64" transform="translate(780.761719 0)"/>
      <use xlink:href="#DejaVuSans-61" transform="translate(844.238281 0)"/>
      <use xlink:href="#DejaVuSans-73" transform="translate(905.517578 0)"/>
      <use xlink:href="#DejaVuSans-68" transform="translate(957.617188 0)"/>
      <use xlink:href="#DejaVuSans-65" transform="translate(1020.996094 0)"/>
      <use xlink:href="#DejaVuSans-64" transform="translate(1082.519531 0)"/>
      <use xlink:href="#DejaVuSans-3a" transform="translate(1145.996094 0)"/>
      <use xlink:href="#DejaVuSans-20" transform="translate(1179.6875 0)"/>
      <use xlink:href="#DejaVuSans-66" transform="translate(1211.474609 0)"/>
      <use xlink:href="#DejaVuSans-69" transform="translate(1246.679688 0)"/>
      <use xlink:href="#DejaVuSans-74" transform="translate(1274.462891 0)"/>
      <use xlink:href="#DejaVuSans-74" transform="translate(1313.671875 0)"/>
      <use xlink:href="#DejaVuSans-65" transform="translate(1352.880859 0)"/>
      <use xlink:href="#DejaVuSans-64" transform="translate(1414.404297 0)"/>
      <use xlink:href="#DejaVuSans-20" transform="translate(1477.880859 0)"/>
      <use xlink:href="#DejaVuSans-31" transform="translate(1509.667969 0)"/>
      <use xlink:href="#DejaVuSans-44" transform="translate(1573.291016 0)"/>
     </g>
    </g>
    <g id="line2d_33">
     <path d="M 113.354219 32.324687
L 121.354219 32.324687
L 129.354219 32.324687
" style="fill: none; stroke: #d55e00; stroke-width: 2.1; stroke-linecap: square"/>
    </g>
    <g id="text_17">
     <!-- seed 105019 -->
     <g transform="translate(135.754219 35.124687) scale(0.08 -0.08)">
      <defs>
       <path id="DejaVuSans-39" d="M 703 97
L 703 672
Q 941 559 1184 500
Q 1428 441 1663 441
Q 2288 441 2617 861
Q 2947 1281 2994 2138
Q 2813 1869 2534 1725
Q 2256 1581 1919 1581
Q 1219 1581 811 2004
Q 403 2428 403 3163
Q 403 3881 828 4315
Q 1253 4750 1959 4750
Q 2769 4750 3195 4129
Q 3622 3509 3622 2328
Q 3622 1225 3098 567
Q 2575 -91 1691 -91
Q 1453 -91 1209 -44
Q 966 3 703 97
z
M 1959 2075
Q 2384 2075 2632 2365
Q 2881 2656 2881 3163
Q 2881 3666 2632 3958
Q 2384 4250 1959 4250
Q 1534 4250 1286 3958
Q 1038 3666 1038 3163
Q 1038 2656 1286 2365
Q 1534 2075 1959 2075
z
" transform="scale(0.015625)"/>
      </defs>
      <use xlink:href="#DejaVuSans-73"/>
      <use xlink:href="#DejaVuSans-65" transform="translate(52.099609 0)"/>
      <use xlink:href="#DejaVuSans-65" transform="translate(113.623047 0)"/>
      <use xlink:href="#DejaVuSans-64" transform="translate(175.146484 0)"/>
      <use xlink:href="#DejaVuSans-20" transform="translate(238.623047 0)"/>
      <use xlink:href="#DejaVuSans-31" transform="translate(270.410156 0)"/>
      <use xlink:href="#DejaVuSans-30" transform="translate(334.033203 0)"/>
      <use xlink:href="#DejaVuSans-35" transform="translate(397.65625 0)"/>
      <use xlink:href="#DejaVuSans-30" transform="translate(461.279297 0)"/>
      <use xlink:href="#DejaVuSans-31" transform="translate(524.902344 0)"/>
      <use xlink:href="#DejaVuSans-39" transform="translate(588.525391 0)"/>
     </g>
    </g>
    <g id="line2d_34">
     <path d="M 113.354219 44.067188
L 121.354219 44.067188
L 129.354219 44.067188
" style="fill: none; stroke: #0072b2; stroke-width: 2.1; stroke-linecap: square"/>
    </g>
    <g id="text_18">
     <!-- seed 121021 -->
     <g transform="translate(135.754219 46.867188) scale(0.08 -0.08)">
      <use xlink:href="#DejaVuSans-73"/>
      <use xlink:href="#DejaVuSans-65" transform="translate(52.099609 0)"/>
      <use xlink:href="#DejaVuSans-65" transform="translate(113.623047 0)"/>
      <use xlink:href="#DejaVuSans-64" transform="translate(175.146484 0)"/>
      <use xlink:href="#DejaVuSans-20" transform="translate(238.623047 0)"/>
      <use xlink:href="#DejaVuSans-31" transform="translate(270.410156 0)"/>
      <use xlink:href="#DejaVuSans-32" transform="translate(334.033203 0)"/>
      <use xlink:href="#DejaVuSans-31" transform="translate(397.65625 0)"/>
      <use xlink:href="#DejaVuSans-30" transform="translate(461.279297 0)"/>
      <use xlink:href="#DejaVuSans-32" transform="translate(524.902344 0)"/>
      <use xlink:href="#DejaVuSans-31" transform="translate(588.525391 0)"/>
     </g>
    </g>
    <g id="line2d_35">
     <path d="M 113.354219 55.809688
L 121.354219 55.809688
L 129.354219 55.809688
" style="fill: none; stroke: #009e73; stroke-width: 2.1; stroke-linecap: square"/>
    </g>
    <g id="text_19">
     <!-- seed 27183 -->
     <g transform="translate(135.754219 58.609688) scale(0.08 -0.08)">
      <defs>
       <path id="DejaVuSans-37" d="M 525 4666
L 3525 4666
L 3525 4397
L 1831 0
L 1172 0
L 2766 4134
L 525 4134
L 525 4666
z
" transform="scale(0.015625)"/>
       <path id="DejaVuSans-38" d="M 2034 2216
Q 1584 2216 1326 1975
Q 1069 1734 1069 1313
Q 1069 891 1326 650
Q 1584 409 2034 409
Q 2484 409 2743 651
Q 3003 894 3003 1313
Q 3003 1734 2745 1975
Q 2488 2216 2034 2216
z
M 1403 2484
Q 997 2584 770 2862
Q 544 3141 544 3541
Q 544 4100 942 4425
Q 1341 4750 2034 4750
Q 2731 4750 3128 4425
Q 3525 4100 3525 3541
Q 3525 3141 3298 2862
Q 3072 2584 2669 2484
Q 3125 2378 3379 2068
Q 3634 1759 3634 1313
Q 3634 634 3220 271
Q 2806 -91 2034 -91
Q 1263 -91 848 271
Q 434 634 434 1313
Q 434 1759 690 2068
Q 947 2378 1403 2484
z
M 1172 3481
Q 1172 3119 1398 2916
Q 1625 2713 2034 2713
Q 2441 2713 2670 2916
Q 2900 3119 2900 3481
Q 2900 3844 2670 4047
Q 2441 4250 2034 4250
Q 1625 4250 1398 4047
Q 1172 3844 1172 3481
z
" transform="scale(0.015625)"/>
      </defs>
      <use xlink:href="#DejaVuSans-73"/>
      <use xlink:href="#DejaVuSans-65" transform="translate(52.099609 0)"/>
      <use xlink:href="#DejaVuSans-65" transform="translate(113.623047 0)"/>
      <use xlink:href="#DejaVuSans-64" transform="translate(175.146484 0)"/>
      <use xlink:href="#DejaVuSans-20" transform="translate(238.623047 0)"/>
      <use xlink:href="#DejaVuSans-32" transform="translate(270.410156 0)"/>
      <use xlink:href="#DejaVuSans-37" transform="translate(334.033203 0)"/>
      <use xlink:href="#DejaVuSans-31" transform="translate(397.65625 0)"/>
      <use xlink:href="#DejaVuSans-38" transform="translate(461.279297 0)"/>
      <use xlink:href="#DejaVuSans-33" transform="translate(524.902344 0)"/>
     </g>
    </g>
   </g>
  </g>
 </g>
 <defs>
  <clipPath id="paa7364ff42">
   <rect x="52.675625" y="7.2" width="322.923895" height="236.275457"/>
  </clipPath>
 </defs>
</svg>
